<svg width="36" height="37" viewBox="0 0 36 37" fill="none" xmlns="http://www.w3.org/2000/svg">
<path fill-rule="evenodd" clip-rule="evenodd" d="M19.9482 4.97272C20.0484 4.9727 20.1486 4.96443 20.246 4.99225C20.2209 5.03683 20.1874 5.07601 20.1484 5.10944C17.1989 7.61801 14.2494 10.1293 11.3027 12.6407C11.2859 12.677 11.2968 12.7217 11.2968 12.7608C11.8354 13.2937 12.3492 13.8573 12.9491 14.3233C13.6746 14.873 14.5257 15.2863 15.4325 15.4063C15.7422 15.4147 16.0575 15.4344 16.3671 15.3926C17.2935 15.2754 18.1621 14.8458 18.8681 14.2403C19.4988 13.7296 20.1099 13.1995 20.7294 12.6749C20.8381 12.6248 20.913 12.7442 20.9882 12.8028C23.8401 15.2305 26.6921 17.6612 29.5468 20.0889C29.77 20.2815 30.016 20.4628 30.1806 20.7139C30.3228 20.9315 30.418 21.1881 30.4208 21.4503C30.4515 21.9609 30.1663 22.4632 29.745 22.7423C29.1395 23.158 28.2799 23.1447 27.6855 22.7149C27.5655 22.6396 27.4593 22.5443 27.3505 22.4522C25.8522 21.1855 24.3568 19.916 22.8613 18.6466C22.7023 18.5099 22.5151 18.376 22.2948 18.3731C22.0744 18.3787 21.9034 18.5429 21.789 18.7159C21.7025 18.8526 21.6277 19.0172 21.6611 19.1817C21.6917 19.3101 21.7527 19.4334 21.8476 19.5255C22.0373 19.7207 22.258 19.8822 22.4589 20.0635C23.6812 21.1044 24.9009 22.1515 26.1259 23.1895C26.2933 23.3401 26.486 23.4685 26.6171 23.6553C26.8067 23.9009 26.9125 24.2079 26.9208 24.5147C26.918 24.8969 26.7315 25.2544 26.4609 25.5167C26.0786 25.8543 25.5508 26.0158 25.0429 25.96C24.7053 25.9098 24.3597 25.8034 24.0947 25.5801C22.8724 24.5533 21.6606 23.5075 20.4384 22.4805C20.2738 22.3466 20.0785 22.1979 19.8525 22.2286C19.5372 22.3096 19.2583 22.5951 19.2499 22.9327C19.2556 23.1474 19.3706 23.3507 19.5351 23.4874C20.5229 24.3217 21.5025 25.1616 22.4931 25.9903C22.8335 26.2917 23.2012 26.6216 23.3212 27.0792C23.4412 27.4977 23.2877 27.9442 23.0478 28.2901C22.8385 28.6248 22.4843 28.8593 22.0966 28.9346C21.6892 29.0016 21.2538 28.9849 20.8798 28.7979C20.6733 28.7086 20.4914 28.5749 20.3212 28.4298C19.5343 27.7684 18.753 27.0985 17.9745 26.4288C17.8295 26.3172 17.6787 26.1829 17.4863 26.169C17.0566 26.119 16.6997 26.5771 16.7499 26.9844C16.789 27.1349 16.8778 27.2691 16.9921 27.3751C17.4888 27.7908 17.9806 28.2115 18.4745 28.6329C18.7117 28.845 18.9734 29.0325 19.1855 29.2725C19.4924 29.6213 19.6662 30.0789 19.6718 30.5421C19.6467 30.8042 19.6017 31.0719 19.454 31.295C19.1945 31.7247 18.7059 31.9711 18.2148 32.0186C17.8716 32.0633 17.5168 31.9934 17.2099 31.8399C16.8779 31.6557 16.5986 31.3985 16.3056 31.1641C12.8428 28.2063 9.38286 25.2427 5.92278 22.2794C3.99741 20.6497 2.10821 19.0005 0.188404 17.3848C-0.00695114 17.2509 -0.0546544 16.9628 0.0653571 16.7647C2.22792 12.861 4.3882 8.95754 6.55071 5.05378C6.57301 4.99238 6.6397 4.96711 6.7011 4.97272H19.9482ZM29.0077 4.96979C29.1361 4.9726 29.3146 4.93627 29.3788 5.08405C31.5722 9.04659 33.7628 13.0092 35.9589 16.9717C35.9785 17.0136 36.0063 17.0553 35.998 17.1055C35.9506 17.1947 35.8643 17.2533 35.789 17.3174C34.6254 18.3081 33.4614 19.3014 32.2978 20.2921C32.2448 20.3367 32.1894 20.3762 32.1337 20.418C32.0277 20.3539 31.9403 20.2647 31.8427 20.1866C28.2151 17.1031 24.5904 14.0191 20.9628 10.9356C20.9015 10.8799 20.8399 10.8272 20.7646 10.7882C19.7768 11.6197 18.8081 12.4762 17.8036 13.2882C17.5163 13.5169 17.187 13.6844 16.8466 13.8155C16.6067 13.8964 16.364 13.9886 16.1073 13.9942C16.1046 13.9997 16.0966 14.0079 16.0937 14.0108C15.6947 14.0359 15.2927 13.9743 14.9159 13.8487C14.3551 13.6394 13.836 13.31 13.4091 12.8887C13.3757 12.8581 13.3501 12.8194 13.3222 12.7833C14.1482 12.0633 14.9916 11.36 15.8232 10.6456C17.9941 8.79547 20.1569 6.95099 22.3222 5.10651C22.431 5.0117 22.5734 4.96979 22.7128 4.96979H29.0077Z" fill="white"/>
</svg>
