<svg width="36" height="37" viewBox="0 0 36 37" fill="none" xmlns="http://www.w3.org/2000/svg">
<path d="M35.5 18.5C35.5 28.165 27.665 36 18 36C8.33502 36 0.5 28.165 0.5 18.5C0.5 8.83502 8.33502 1 18 1C27.665 1 35.5 8.83502 35.5 18.5Z" fill="white"/>
<path d="M20.5142 8.36842H16.2215C15.4913 8.36842 14.8717 8.89863 14.7168 9.63631C14.6726 9.79768 14.6505 9.95904 14.6505 10.1204V17.1745H13.1015C12.2386 17.1745 11.5526 17.8891 11.5526 18.7882C11.5526 19.6872 12.2386 20.4018 13.1015 20.4018H14.6505V21.3931H13.1015C12.2386 21.3931 11.5526 22.1077 11.5526 23.0068C11.5526 23.9058 12.2386 24.6204 13.1015 24.6204H14.6505V27.0179C14.6505 27.917 15.3364 28.6316 16.1994 28.6316C17.0624 28.6316 17.7483 27.917 17.7483 27.0179V24.6204H22.3287C23.1916 24.6204 23.8776 23.9058 23.8776 23.0068C23.8776 22.1077 23.1916 21.3931 22.3287 21.3931H17.7483V20.4018H20.5142C23.7006 20.4018 26.2895 17.7047 26.2895 14.3851C26.2895 11.0656 23.7006 8.36842 20.5142 8.36842ZM20.5142 17.1745H17.7483V11.5958H20.5142C21.9968 11.5958 23.1916 12.8406 23.1916 14.3851C23.1916 15.9296 21.9968 17.1745 20.5142 17.1745Z" fill="#215387"/>
</svg>
