<svg width="36" height="37" viewBox="0 0 36 37" fill="none" xmlns="http://www.w3.org/2000/svg">
<path d="M3.48828 30.407C3.48907 31.4923 3.92055 32.5329 4.68797 33.3003C5.45539 34.0677 6.49601 34.4992 7.5813 34.5H28.4185C29.5038 34.4992 30.5444 34.0677 31.3118 33.3003C32.0793 32.5329 32.5107 31.4923 32.5115 30.407V6.59302C32.5107 5.50773 32.0793 4.46711 31.3118 3.69969C30.5444 2.93227 29.5038 2.50079 28.4185 2.5H7.5813C6.49601 2.50079 5.45539 2.93227 4.68797 3.69969C3.92055 4.46711 3.48907 5.50773 3.48828 6.59302V30.407ZM20.9767 13.4142H26.9301C27.2262 13.4142 27.5101 13.5318 27.7195 13.7412C27.9288 13.9505 28.0464 14.2345 28.0464 14.5305C28.0464 14.8266 27.9288 15.1105 27.7195 15.3198C27.5101 15.5292 27.2262 15.6468 26.9301 15.6468H20.9767C20.6806 15.6468 20.3967 15.5292 20.1873 15.3198C19.978 15.1105 19.8604 14.8266 19.8604 14.5305C19.8604 14.2345 19.978 13.9505 20.1873 13.7412C20.3967 13.5318 20.6806 13.4142 20.9767 13.4142ZM20.9767 22.3445H26.9301C27.2262 22.3445 27.5101 22.4621 27.7195 22.6714C27.9288 22.8808 28.0464 23.1647 28.0464 23.4607C28.0464 23.7568 27.9288 24.0407 27.7195 24.2501C27.5101 24.4594 27.2262 24.577 26.9301 24.577H20.9767C20.6806 24.577 20.3967 24.4594 20.1873 24.2501C19.978 24.0407 19.8604 23.7568 19.8604 23.4607C19.8604 23.1647 19.978 22.8808 20.1873 22.6714C20.3967 22.4621 20.6806 22.3445 20.9767 22.3445ZM9.76921 13.246C9.87275 13.1424 9.99571 13.0601 10.1311 13.004C10.2664 12.9479 10.4115 12.919 10.558 12.919C10.7046 12.919 10.8497 12.9479 10.985 13.004C11.1204 13.0601 11.2433 13.1424 11.3469 13.246L12.5376 14.4367L15.7227 11.2606C15.9327 11.0513 16.2172 10.9341 16.5136 10.9347C16.8101 10.9352 17.0941 11.0535 17.3034 11.2635C17.5126 11.4735 17.6298 11.758 17.6292 12.0545C17.6287 12.3509 17.5104 12.635 17.3004 12.8442L13.3309 16.8092C13.1214 17.0179 12.8377 17.1351 12.542 17.1351C12.2464 17.1351 11.9627 17.0179 11.7532 16.8092L9.76921 14.8237C9.66552 14.7202 9.58327 14.5972 9.52715 14.4619C9.47102 14.3265 9.44214 14.1814 9.44214 14.0349C9.44214 13.8884 9.47102 13.7433 9.52715 13.6079C9.58327 13.4725 9.66552 13.3496 9.76921 13.246ZM9.76921 22.1763C9.87265 22.0724 9.99558 21.99 10.131 21.9338C10.2663 21.8775 10.4115 21.8486 10.558 21.8486C10.7046 21.8486 10.8498 21.8775 10.9851 21.9338C11.1205 21.99 11.2434 22.0724 11.3469 22.1763L12.5376 23.367L15.7182 20.1863C15.9288 19.9765 16.2141 19.859 16.5114 19.8595C16.8087 19.8601 17.0935 19.9787 17.3034 20.1893C17.5132 20.3999 17.6307 20.6852 17.6302 20.9825C17.6296 21.2797 17.511 21.5646 17.3004 21.7744L13.3309 25.7394C13.1214 25.9481 12.8377 26.0653 12.542 26.0653C12.2464 26.0653 11.9627 25.9481 11.7532 25.7394L9.76921 23.754C9.66552 23.6504 9.58327 23.5275 9.52715 23.3921C9.47102 23.2567 9.44214 23.1116 9.44214 22.9651C9.44214 22.8186 9.47102 22.6735 9.52715 22.5381C9.58327 22.4028 9.66552 22.2798 9.76921 22.1763Z" fill="white"/>
</svg>
