<svg width="36" height="37" viewBox="0 0 36 37" fill="none" xmlns="http://www.w3.org/2000/svg">
<path fill-rule="evenodd" clip-rule="evenodd" d="M8.25378 4.28815C11.2387 2.91129 15.1123 1.47008 18.3078 1.50047C21.3867 1.53087 25.1076 2.97391 27.9704 4.33822C29.4211 5.02844 30.6875 5.71686 31.592 6.23184C32.0442 6.48933 32.406 6.70572 32.6565 6.85591C32.7818 6.9328 32.8792 6.99181 32.9453 7.03293L33.0218 7.08121L33.0427 7.09373L33.0479 7.09731H33.0496C33.0496 7.0991 33.0496 7.0991 32.5835 7.87871L33.0496 7.09909C33.3053 7.26002 33.4636 7.54255 33.4741 7.8501C33.688 15.2081 32.58 20.8871 30.0856 25.3558C27.5842 29.8351 23.7418 32.9949 18.6747 35.4142C18.4364 35.5286 18.1616 35.5286 17.9233 35.4142C12.8753 33.002 8.88497 29.846 6.22518 25.3718C3.56905 20.9033 2.30096 15.215 2.52535 7.8446C2.53404 7.53347 2.69755 7.24915 2.95499 7.09003L3.41597 7.87321C2.95499 7.09003 2.95677 7.09003 2.95677 7.08824H2.95851L2.9846 7.07036L3.06462 7.02208C3.1342 6.98096 3.23509 6.92016 3.36555 6.84327C3.6282 6.68771 4.00567 6.46955 4.47707 6.20671C5.41986 5.6828 6.74042 4.9855 8.25378 4.28815ZM25.3057 14.434C25.8902 13.7509 25.8259 12.7102 25.1614 12.1094C24.4951 11.5086 23.4828 11.5747 22.8983 12.2578L16.5737 19.6552L13.1191 16.0646C12.4964 15.4173 11.4823 15.412 10.8526 16.0521C10.2229 16.6923 10.2177 17.7348 10.8405 18.382L15.5023 23.2279C15.8154 23.5533 16.2451 23.7304 16.6887 23.7161C17.134 23.7035 17.5532 23.5015 17.8454 23.1581L25.3057 14.434Z" fill="white"/>
</svg>
