<svg width="36" height="37" viewBox="0 0 36 37" fill="none" xmlns="http://www.w3.org/2000/svg">
<path fill-rule="evenodd" clip-rule="evenodd" d="M6.18726 18.3078L16.871 22.4547C17.5969 22.7467 18.4062 22.7467 19.1322 22.4547L29.808 18.3153V25.5068C29.8173 26.0521 29.5516 26.5649 29.1006 26.8722C26.7282 28.5249 22.6397 29.64 17.9938 29.64C13.3478 29.64 9.2594 28.5449 6.887 26.8722C6.43601 26.5648 6.1688 26.0521 6.17959 25.5068V18.3078H6.18726ZM3.02406 23.38V16.2628L17.1351 21.732C17.6911 21.9575 18.312 21.9575 18.8681 21.732L35.4749 15.2944C35.7915 15.1678 36 14.8604 36 14.5191C36 14.1778 35.7915 13.8704 35.4749 13.7438L18.8681 7.30625V7.3078C18.312 7.0823 17.6911 7.0823 17.1351 7.3078L0.525131 13.7564C0.206956 13.883 0 14.1904 0 14.5317C0 14.8731 0.206968 15.1804 0.525131 15.3071L2.25655 15.9789V23.3804C1.73759 23.5596 1.39161 24.0492 1.3947 24.599V29.035C1.39006 29.4799 1.74067 29.8459 2.1855 29.8613H3.06744C3.51226 29.8459 3.86286 29.4798 3.85824 29.035V24.599C3.86441 24.0507 3.52153 23.5611 3.00409 23.3804L3.02406 23.38Z" fill="white"/>
</svg>
