<svg width="20" height="19" viewBox="0 0 20 19" fill="none" xmlns="http://www.w3.org/2000/svg">
<path d="M15.3357 13.5714C15.1796 13.5717 15.0282 13.5165 14.9079 13.4153L11.8863 10.8571H10.6562C9.23786 10.8571 7.87757 10.2852 6.87463 9.26715C5.87168 8.24909 5.30823 6.86831 5.30823 5.42857C5.30823 3.98882 5.87168 2.60804 6.87463 1.58999C7.87757 0.571937 9.23786 0 10.6562 0H14.6672C15.9662 0.00376505 17.2195 0.48731 18.193 1.36035C19.1664 2.23338 19.7936 3.43622 19.9573 4.74427C20.1211 6.05232 19.8102 7.37614 19.0828 8.46856C18.3553 9.56098 17.261 10.3473 16.0043 10.6807V12.8928C16.0046 13.0226 15.9682 13.1498 15.8995 13.2592C15.8308 13.3687 15.7326 13.4558 15.6165 13.5103C15.5284 13.5511 15.4326 13.5719 15.3357 13.5714ZM10.6562 1.35714C9.59246 1.35714 8.57224 1.78609 7.82003 2.54964C7.06782 3.31318 6.64524 4.34876 6.64524 5.42857C6.64524 6.50838 7.06782 7.54396 7.82003 8.3075C8.57224 9.07104 9.59246 9.49999 10.6562 9.49999H12.1269C12.2831 9.49968 12.4345 9.5549 12.5548 9.65607L14.6672 11.4407V10.1243C14.6657 9.95962 14.7231 9.79999 14.8289 9.67515C14.9346 9.5503 15.0815 9.46875 15.2422 9.44571C16.2301 9.28137 17.1217 8.74798 17.742 7.95033C18.3622 7.15268 18.6661 6.14843 18.5941 5.1349C18.522 4.12136 18.0792 3.17181 17.3526 2.47279C16.626 1.77378 15.6682 1.37583 14.6672 1.35714H10.6562Z" fill="white"/>
<path d="M13.3302 4.75H11.9932V6.10714H13.3302V4.75Z" fill="white"/>
<path d="M9.98774 4.75H8.65074V6.10714H9.98774V4.75Z" fill="white"/>
<path d="M16.6728 4.75H15.3357V6.10714H16.6728V4.75Z" fill="white"/>
<path d="M4.63973 19C4.54289 19.0005 4.44709 18.9797 4.35896 18.9389C4.24292 18.8844 4.14472 18.7973 4.076 18.6878C4.00727 18.5784 3.97091 18.4512 3.97123 18.3214V16.1093C2.90756 15.8216 1.95724 15.2078 1.24998 14.3516C0.542717 13.4954 0.112962 12.4385 0.0193699 11.3252C-0.0742226 10.2119 0.172906 9.09643 0.727029 8.13097C1.28115 7.16551 2.11527 6.39714 3.11555 5.93071C3.19628 5.88752 3.28488 5.86157 3.37587 5.85446C3.46686 5.84735 3.55832 5.85922 3.64462 5.88935C3.73092 5.91947 3.81022 5.96722 3.87766 6.02963C3.94509 6.09205 3.99921 6.16783 4.0367 6.25228C4.07419 6.33674 4.09424 6.4281 4.09563 6.52072C4.09702 6.61334 4.0797 6.70528 4.04476 6.79085C4.00982 6.87642 3.95798 6.95383 3.89245 7.0183C3.82692 7.08277 3.74908 7.13294 3.66372 7.16571C2.87484 7.52878 2.22294 8.14132 1.80552 8.91172C1.3881 9.68211 1.22758 10.569 1.34797 11.4397C1.46836 12.3104 1.86318 13.1181 2.47341 13.7421C3.08363 14.3661 3.87646 14.7728 4.73332 14.9014C4.89395 14.9245 5.04084 15.006 5.14661 15.1309C5.25239 15.2557 5.30983 15.4153 5.30823 15.58V16.8964L7.4207 15.1118C7.53716 15.0008 7.68894 14.9358 7.84854 14.9286H9.31924C9.8546 14.9296 10.3846 14.8207 10.8775 14.6085C11.3703 14.3962 11.8158 14.085 12.1871 13.6936C12.3112 13.564 12.481 13.4898 12.659 13.4872C12.7471 13.486 12.8347 13.5023 12.9166 13.5354C12.9985 13.5685 13.0732 13.6176 13.1364 13.68C13.1996 13.7424 13.2501 13.8168 13.285 13.899C13.3198 13.9811 13.3384 14.0695 13.3397 14.159C13.3409 14.2484 13.3248 14.3373 13.2922 14.4204C13.2596 14.5036 13.2112 14.5794 13.1498 14.6436C12.6516 15.163 12.0561 15.576 11.3982 15.858C10.7403 16.14 10.0334 16.2855 9.31924 16.2857H8.0892L5.06757 18.8439C4.9473 18.9451 4.79593 19.0003 4.63973 19Z" fill="white"/>
</svg>