<svg width="36" height="36" viewBox="0 0 36 36" fill="none" xmlns="http://www.w3.org/2000/svg">
<path d="M30.741 15.9846C30.4103 15.335 29.7522 14.93 29.0233 14.93H20.622L21.3846 2.0419C21.4353 1.18133 20.924 0.406816 20.1124 0.114936C19.3007 -0.175293 18.4149 0.0963753 17.9053 0.791568L5.42231 17.8879C4.99204 18.4768 4.9313 19.2463 5.26202 19.8959C5.59274 20.5472 6.25083 20.9505 6.97977 20.9505H15.2917L14.5273 33.9583C14.4767 34.8172 14.988 35.5916 15.7979 35.8836C16.0156 35.9612 16.2383 36 16.456 36C17.0566 36 17.6321 35.7182 18.0033 35.2086L30.5756 17.9939C31.0059 17.4067 31.0683 16.6356 30.7393 15.986L30.741 15.9846Z" fill="white"/>
</svg>
