<svg width="32" height="32" viewBox="0 0 32 32" fill="none" xmlns="http://www.w3.org/2000/svg">
<mask id="mask0_267_38" style="mask-type:alpha" maskUnits="userSpaceOnUse" x="0" y="0" width="32" height="32">
<path fill-rule="evenodd" clip-rule="evenodd" d="M8.20394 0.878419L9.53001 0.864807L23.3276 0.870135C23.5368 0.872266 23.6669 0.874882 23.797 0.878419C24.4811 0.896584 25.1711 0.936646 25.8475 1.05683C26.5343 1.17861 27.1729 1.37785 27.7964 1.69194C28.4092 2.00012 28.9705 2.40286 29.4568 2.88417C29.9431 3.36432 30.3505 3.91878 30.6623 4.52502C30.9805 5.14197 31.1815 5.77336 31.3047 6.45226C31.4263 7.12099 31.4668 7.80309 31.4852 8.47933C31.4938 8.78964 31.4976 9.10001 31.4992 9.41085L31.5011 9.96352L31.5014 22.2106C31.5014 22.5792 31.5014 22.9478 31.4992 23.3169C31.4976 23.6272 31.4938 23.9375 31.4852 24.2479C31.4668 24.9236 31.4263 25.6062 31.3047 26.2744C31.1815 26.9533 30.9805 27.5852 30.6623 28.2022C30.3505 28.8079 29.9431 29.3623 29.4568 29.8431C28.9705 30.3238 28.4092 30.7271 27.7964 31.0353C27.1729 31.3493 26.5343 31.5486 25.8475 31.6704C25.1711 31.7905 24.4811 31.8306 23.797 31.8488L21.7362 31.8648L8.67295 31.8571C8.46373 31.8549 8.33386 31.8523 8.20394 31.8488C7.5199 31.8306 6.8299 31.7905 6.15342 31.6704C5.46672 31.5486 4.82807 31.3493 4.20453 31.0353C3.59127 30.7271 3.03042 30.3238 2.54412 29.8431C2.05786 29.3623 1.65042 28.8079 1.33812 28.2022C1.02044 27.5852 0.819413 26.9533 0.695694 26.2744C0.574106 25.6062 0.534143 24.9236 0.515784 24.2479C0.507113 23.9375 0.503335 23.6272 0.501736 23.3169L0.499363 22.7635L0.499023 10.5166C0.499023 10.148 0.499023 9.77891 0.501736 9.41085C0.503335 9.10001 0.507113 8.78964 0.515784 8.47933C0.534143 7.80309 0.574106 7.12099 0.695694 6.45226C0.819413 5.77336 1.02044 5.14197 1.33812 4.52502C1.65042 3.91878 2.05786 3.36432 2.54412 2.88417C3.03042 2.40286 3.59127 2.00012 4.20453 1.69194C4.82807 1.37785 5.46672 1.17861 6.15342 1.05683C6.8299 0.936646 7.5199 0.896584 8.20394 0.878419Z" fill="white"/>
</mask>
<g mask="url(#mask0_267_38)">
<path d="M31.5014 0.862404H0.499023V31.8648H31.5014V0.862404Z" fill="#19AA1E"/>
<path fill-rule="evenodd" clip-rule="evenodd" d="M0.499023 0.862404H31.5014V11.0351L0.499023 6.19094V0.862404Z" fill="#FFB919"/>
<path fill-rule="evenodd" clip-rule="evenodd" d="M0.499023 28.4739L31.5014 23.6298V31.8648H0.499023V28.4739Z" fill="#82D714"/>
<path fill-rule="evenodd" clip-rule="evenodd" d="M0.499023 5.5781L11.3206 7.26894C12.6677 6.41623 14.2704 5.94872 16.0002 5.94872C18.3961 5.94872 20.548 6.84561 22.1149 8.42053C22.3126 8.61928 22.4991 8.8271 22.674 9.0429L31.5014 10.4222V11.6479L23.5704 10.4087C24.1596 11.5394 24.4774 12.7992 24.4774 14.0849C24.4774 15.7459 24.1059 17.402 23.3379 19.0646L23.3145 19.115L22.9884 19.8139H22.2171C20.6245 19.8139 19.5681 20.2903 18.8774 21.1346C18.335 21.7975 18.0214 22.6912 17.9159 23.6662L17.9127 23.6967L17.8973 23.8525L17.8907 23.9203L17.8782 24.0528C17.8378 24.4882 17.8108 24.8574 17.7971 25.1582L31.5014 23.0169V24.2426L0.499023 29.0867V27.861L14.2188 25.7173L14.2127 25.4421L14.2109 25.3645L14.2098 25.3247L14.2077 25.2633C14.1953 24.9296 14.1647 24.5019 14.1158 23.9835L14.1064 23.8852L14.0896 23.715C13.9911 22.7348 13.6822 21.8298 13.1413 21.1571C12.4579 20.307 11.4111 19.8236 9.83132 19.814L9.78331 19.8139H9.01203L8.68588 19.115C7.90205 17.4354 7.523 15.7627 7.523 14.0849C7.523 11.9751 8.37896 9.93485 9.88553 8.42053C9.92903 8.37684 9.97296 8.33363 10.0173 8.291L0.499023 6.80376V5.5781Z" fill="white"/>
<path fill-rule="evenodd" clip-rule="evenodd" d="M15.9996 7.15976C20.3278 7.15976 23.2658 10.4912 23.2658 14.0849C23.2658 15.5277 22.951 17.029 22.2165 18.6029C17.9575 18.6029 16.9063 21.6529 16.7075 23.572L16.6948 23.6999C16.6274 24.3848 16.5884 24.9343 16.5778 25.3487L15.4242 25.5289L15.424 25.4916C15.4196 25.0573 15.3786 24.4481 15.3009 23.664L15.2974 23.6298C15.1138 21.7148 14.0847 18.6029 9.78268 18.6029C9.04817 17.029 8.7334 15.5277 8.7334 14.0849C8.7334 10.4912 11.6714 7.15976 15.9996 7.15976Z" fill="#0073FA"/>
</g>
</svg>
