<svg width="40" height="40" viewBox="0 0 40 40" fill="none" xmlns="http://www.w3.org/2000/svg">
<path d="M20 14C23.3137 14 26 16.6863 26 20C26 23.3137 23.3137 26 20 26C16.6863 26 14 23.3137 14 20C14 16.6863 16.6863 14 20 14Z" fill="#215387"/>
<path fill-rule="evenodd" clip-rule="evenodd" d="M20.8008 0C29.8536 2.31006e-09 34.3726 0.000865698 37.1992 2.80078C39.9991 5.6407 40 10.1597 40 19.1992V20.8008C40 29.8536 39.9991 34.3726 37.1992 37.1992C34.3593 39.9991 29.8403 40 20.8008 40H19.1992C10.1464 40 5.62737 39.9991 2.80078 37.1992C0.000867605 34.3593 2.31689e-09 29.8403 0 20.8008V19.1992C2.31712e-09 10.1464 0.000865459 5.62737 2.80078 2.80078C5.6407 0.000867367 10.1597 2.32397e-09 19.1992 0H20.8008ZM20 10C14.4772 10 10 14.4772 10 20C10 25.5228 14.4772 30 20 30C25.5228 30 30 25.5228 30 20C30 14.4772 25.5228 10 20 10ZM30.5 7C29.1193 7 28 8.11929 28 9.5C28 10.8807 29.1193 12 30.5 12C31.8807 12 33 10.8807 33 9.5C33 8.11929 31.8807 7 30.5 7Z" fill="#215387"/>
</svg>
