<svg width="126" height="30" viewBox="0 0 126 30" fill="none" xmlns="http://www.w3.org/2000/svg">
<path d="M6.57285 2.65722C6.59523 2.5956 6.66243 2.5704 6.72405 2.57604C11.1537 2.57604 15.586 2.57604 20.0157 2.57604C20.1165 2.57604 20.2173 2.56764 20.3152 2.59566C20.29 2.64048 20.2564 2.67966 20.2173 2.71326C17.2576 5.23044 14.2981 7.75044 11.3413 10.2704C11.3245 10.3069 11.3357 10.3516 11.3357 10.3909C11.8761 10.9256 12.3913 11.4913 12.9933 11.9588C13.7213 12.5104 14.5753 12.9248 15.4853 13.0453C15.7961 13.0537 16.1125 13.0733 16.4233 13.0313C17.3529 12.9137 18.2237 12.4825 18.9321 11.8749C19.5649 11.3625 20.1781 10.8305 20.7997 10.3041C20.9089 10.2537 20.9845 10.3741 21.0601 10.4329C23.9217 12.8689 26.7833 15.3077 29.6477 17.7437C29.8717 17.9369 30.1181 18.1189 30.2833 18.3709C30.4261 18.5893 30.5213 18.8469 30.5241 19.1101C30.5548 19.6225 30.2692 20.1265 29.8465 20.4065C29.2389 20.8237 28.3765 20.8097 27.7801 20.3785C27.6597 20.3029 27.5533 20.2077 27.4441 20.1153C25.9405 18.8441 24.4397 17.5701 22.9389 16.2961C22.7793 16.1589 22.5916 16.0245 22.3705 16.0217C22.1493 16.0273 21.9785 16.1926 21.8637 16.3661C21.7768 16.5034 21.7012 16.6685 21.7348 16.8337C21.7656 16.9625 21.8272 17.0857 21.9225 17.1781C22.1128 17.3741 22.3341 17.5365 22.5357 17.7185C23.7621 18.763 24.9856 19.813 26.2149 20.8546C26.3829 21.0058 26.5761 21.1346 26.7076 21.3221C26.898 21.5686 27.0045 21.8765 27.0129 22.1845C27.01 22.5681 26.8225 22.9265 26.5509 23.1897C26.1673 23.5285 25.6381 23.6909 25.1284 23.6349C24.7896 23.5845 24.4425 23.4781 24.1764 23.2541C22.95 22.2237 21.7348 21.1737 20.5084 20.1433C20.3433 20.0089 20.1472 19.8605 19.9204 19.8913C19.6041 19.9724 19.324 20.258 19.3156 20.5969C19.3212 20.8124 19.4361 21.0169 19.6012 21.1541C20.5924 21.9913 21.5752 22.8341 22.5693 23.6657C22.9108 23.9681 23.2804 24.2985 23.4009 24.7577C23.5213 25.1777 23.3673 25.6257 23.1265 25.9729C22.9165 26.3089 22.5609 26.5441 22.1717 26.6197C21.7629 26.6869 21.3261 26.6701 20.9509 26.4824C20.7437 26.3929 20.5617 26.2585 20.3909 26.1128C19.6013 25.4492 18.8173 24.7772 18.0361 24.1052C17.8905 23.9932 17.7393 23.8588 17.5461 23.8448C17.1148 23.7944 16.7565 24.2536 16.8069 24.6625C16.846 24.8137 16.9357 24.9481 17.0505 25.0544C17.5489 25.4716 18.0417 25.8944 18.5373 26.3173C18.7753 26.5301 19.0384 26.7176 19.2513 26.9585C19.5592 27.3085 19.7329 27.7677 19.7385 28.2325C19.7133 28.4957 19.6684 28.7645 19.5201 28.9885C19.2597 29.4197 18.7696 29.666 18.2769 29.7137C17.9325 29.7585 17.5768 29.6885 17.2689 29.5345C16.9357 29.3497 16.6557 29.0921 16.3617 28.8569C12.8869 25.8889 9.41487 22.9153 5.94285 19.9417C4.01085 18.3064 2.11527 16.6516 0.188846 15.0304C-0.00717365 14.896 -0.0547537 14.6076 0.0656663 14.4088C2.23569 10.4917 4.40289 6.57444 6.57285 2.65722Z" fill="#215387"/>
<path d="M22.3986 2.71043C22.5078 2.61521 22.6506 2.57321 22.7906 2.57321C24.8962 2.57321 27.0018 2.57321 29.1074 2.57321C29.2362 2.57603 29.4154 2.53961 29.4798 2.68799C31.6806 6.66401 33.8786 10.64 36.0822 14.616C36.1018 14.658 36.1298 14.7 36.1214 14.7504C36.0738 14.84 35.987 14.8988 35.9114 14.9632C34.7438 15.9572 33.5762 16.954 32.4086 17.948C32.3554 17.9929 32.2994 18.032 32.2434 18.074C32.137 18.0097 32.0502 17.92 31.9522 17.8417C28.3122 14.7476 24.675 11.6537 21.035 8.55965C20.9734 8.50367 20.9119 8.45045 20.8363 8.41127C19.8451 9.24569 18.8735 10.1053 17.8655 10.9201C17.5771 11.1497 17.2467 11.3177 16.9051 11.4493C16.6643 11.5304 16.4207 11.6228 16.163 11.6285C16.1602 11.6341 16.1518 11.6425 16.1491 11.6453C15.7487 11.6705 15.3455 11.6089 14.9675 11.4829C14.4047 11.2729 13.8839 10.9424 13.4555 10.5197C13.4219 10.4889 13.3967 10.4497 13.3687 10.4133C14.1974 9.69089 15.0431 8.98529 15.8774 8.26847C18.0558 6.41201 20.2258 4.56125 22.3986 2.71043Z" fill="#BA0000"/>
<path d="M45.8343 13.7032C46.5287 13.7032 47.1363 13.608 47.6375 13.4204C48.1359 13.2412 48.5559 12.992 48.8863 12.6841C49.2223 12.3816 49.4714 12.026 49.6255 11.6312C49.7738 11.2364 49.8494 10.8332 49.8494 10.4384C49.8494 9.71321 49.6282 9.08885 49.1887 8.58485C48.875 8.23205 48.4747 7.96043 47.9959 7.77287C48.3431 7.56005 48.6343 7.29125 48.8611 6.97205C49.2083 6.48203 49.3847 5.92205 49.3847 5.30327C49.3847 4.93649 49.3203 4.57529 49.1859 4.21967C49.0431 3.87809 48.8191 3.57005 48.5195 3.30407C48.2171 3.04649 47.8335 2.83367 47.3743 2.67407C46.9235 2.52845 46.3747 2.45285 45.7447 2.45285C45.4199 2.45285 45.0811 2.48927 44.7367 2.56205C44.4062 2.63483 44.0815 2.73287 43.7707 2.85887C43.457 2.98487 43.1603 3.14165 42.8943 3.32645C42.6255 3.51125 42.3931 3.71285 42.1999 3.92567L42.0599 4.07969L43.2303 5.61407L43.4319 5.39849C43.7287 5.08211 44.0955 4.81049 44.5155 4.58927C44.9243 4.37645 45.3443 4.26725 45.7587 4.26725C46.3719 4.26725 46.8059 4.36805 47.0467 4.56683C47.2735 4.75445 47.3883 5.08763 47.3883 5.55245C47.3883 5.95847 47.2399 6.28043 46.9431 6.53807C46.6183 6.80129 46.2095 6.93005 45.6971 6.93005H43.9387V8.75843H45.8931C46.5315 8.75843 47.0215 8.91245 47.3491 9.21203C47.6796 9.52283 47.8391 9.90365 47.8391 10.3741C47.8391 10.5617 47.8055 10.7465 47.7355 10.9256C47.6683 11.102 47.5675 11.2561 47.4387 11.3848C47.2931 11.5192 47.1027 11.634 46.8675 11.7208C46.6295 11.8104 46.3271 11.8552 45.9687 11.8552C45.3359 11.8552 44.7787 11.7292 44.3139 11.4828C43.8351 11.214 43.4011 10.9116 43.0259 10.5868L42.8411 10.4244L41.4663 11.9364L41.6707 12.1044C42.2111 12.544 42.8103 12.9192 43.4543 13.2272C44.1123 13.5436 44.9131 13.7032 45.8343 13.7032Z" fill="#215387"/>
<path d="M60.2403 13.552V2.59842H58.2467V6.73404H53.3719V2.59842H51.3755V13.552H53.3719V8.57922H58.2467V13.552H60.2403Z" fill="#215387"/>
<path d="M64.1769 10.9984H68.3461L69.3625 13.552H71.4877L67.0749 2.59842H65.4509L61.0381 13.5548H63.1633L64.1769 10.9984ZM64.9161 9.15324L66.2629 5.79042L67.6098 9.15324H64.9161Z" fill="#215387"/>
<path d="M74.1733 10.0969L75.3297 8.78082L79.0593 13.5688H81.5457L76.654 7.28004L80.7813 2.59842H78.4096L74.1733 7.41162V2.59842H72.2104V13.552H74.1733V10.0969Z" fill="#215387"/>
<path d="M80.8457 10.3516C81.1257 11.0376 81.5205 11.6368 82.0217 12.138C82.5201 12.628 83.1249 13.0172 83.8249 13.2972C84.5192 13.566 85.292 13.7032 86.1264 13.7032C86.9609 13.7032 87.7337 13.566 88.4309 13.2972C89.1253 13.0172 89.7301 12.628 90.2313 12.138C90.7409 11.6368 91.1385 11.0348 91.4073 10.3516C91.6873 9.66838 91.8301 8.90398 91.8301 8.0836C91.8301 7.26322 91.6901 6.49882 91.4157 5.81002C91.1413 5.1184 90.7409 4.5136 90.2313 4.01242C89.7329 3.5224 89.1281 3.13324 88.4281 2.85322C87.7337 2.58442 86.9609 2.4472 86.1265 2.4472C85.2921 2.4472 84.5193 2.58442 83.8221 2.85322C83.1277 3.13324 82.5229 3.5224 82.0217 4.01242C81.5232 4.51084 81.1257 5.11564 80.8457 5.80444C80.5656 6.49324 80.4229 7.25764 80.4229 8.07802C80.4229 8.90404 80.5657 9.66562 80.8457 10.3516ZM86.1237 4.29244C86.6865 4.29244 87.1989 4.38202 87.6413 4.55842C88.0949 4.74322 88.4841 5.0008 88.7949 5.32282C89.1085 5.64484 89.3549 6.0424 89.5313 6.50722C89.7077 6.9748 89.8001 7.504 89.8001 8.0836C89.8001 8.6632 89.7105 9.18958 89.5341 9.65158C89.3577 10.1108 89.1113 10.5056 88.7949 10.8304C88.4841 11.1608 88.0977 11.4156 87.6441 11.592C87.1989 11.7684 86.6865 11.858 86.1237 11.858C85.5693 11.858 85.0569 11.7684 84.6033 11.592C84.1609 11.4184 83.7745 11.1608 83.4525 10.8304C83.1389 10.5084 82.8925 10.1108 82.7161 9.6544C82.5397 9.1924 82.4501 8.66602 82.4501 8.08642C82.4501 7.50682 82.5397 6.97762 82.7189 6.51004C82.8953 6.04804 83.1418 5.64766 83.4526 5.32846C83.7746 5.00644 84.1665 4.74604 84.6062 4.56406C85.0597 4.38202 85.5721 4.29244 86.1237 4.29244Z" fill="#215387"/>
<path d="M98.0266 9.74964L94.6022 2.59842H92.7598V13.552H94.7226V7.04766L97.181 12.208H98.8721L101.331 7.04766V13.552H103.296V2.59842H101.454L98.0266 9.74964Z" fill="#215387"/>
<path d="M111.598 7.78962C111.274 7.476 110.856 7.22964 110.358 7.05324C109.865 6.87966 109.28 6.79284 108.616 6.79284H107.015V2.59842H105.035V13.5548H108.616C109.28 13.5548 109.865 13.468 110.358 13.2944C110.859 13.118 111.276 12.8716 111.598 12.5581C111.923 12.2444 112.164 11.8777 112.315 11.4632C112.464 11.0572 112.539 10.6261 112.539 10.1752C112.539 9.72444 112.464 9.2904 112.315 8.8872C112.164 8.47284 111.923 8.10324 111.598 7.78962ZM107.015 8.63802H108.616C109.314 8.63802 109.815 8.77242 110.106 9.03564C110.403 9.30726 110.548 9.67962 110.548 10.1725C110.548 10.6652 110.403 11.0377 110.109 11.3093C109.82 11.5725 109.319 11.7069 108.619 11.7069L107.018 11.7068V8.63802H107.015Z" fill="#215387"/>
<path d="M115.196 2.59848H113.203V13.5549H115.196V2.59848Z" fill="#215387"/>
<path d="M119.704 2.25684C120.18 2.45844 120.729 2.55924 121.333 2.55924C121.935 2.55924 122.49 2.45844 122.977 2.25684C123.47 2.04966 123.876 1.69962 124.181 1.22082L124.307 1.02204L122.915 6.00014e-05L122.764 0.17646C122.649 0.31086 122.543 0.42564 122.439 0.52926C122.355 0.62166 122.263 0.70284 122.165 0.77004C122.067 0.82602 121.955 0.87084 121.829 0.90444C121.703 0.93804 121.538 0.95484 121.342 0.95484C121.146 0.95484 120.978 0.93804 120.843 0.90162C120.715 0.86802 120.6 0.8232 120.502 0.76722C120.401 0.70002 120.309 0.61884 120.227 0.5292L120.219 0.5208C120.124 0.4284 120.02 0.3108 119.903 0.1764L119.751 0L118.36 1.02198L118.486 1.22076C118.791 1.69962 119.2 2.04966 119.704 2.25684Z" fill="#215387"/>
<path d="M123.778 6.18804V13.552H125.741V2.59842H123.896L118.904 9.94842V2.59842H116.938V13.552H118.783L123.778 6.18804Z" fill="#215387"/>
<path d="M54.66 20.1796C54.1812 19.6896 53.5904 19.3004 52.91 19.026C52.2296 18.7516 51.4792 18.6116 50.6728 18.6116C49.9504 18.6116 49.27 18.7236 48.6456 18.9476C48.0211 19.1716 47.4667 19.4908 46.9992 19.8968C46.5204 20.3028 46.12 20.7984 45.8119 21.364C45.5376 21.8708 45.3415 22.4308 45.2295 23.0327L44.1684 23.0329V18.76H42.1748V29.7164H44.1684V24.878H45.1512C45.2184 25.5613 45.3836 26.1968 45.6384 26.768C45.924 27.4093 46.3132 27.9608 46.7948 28.4089C47.2848 28.868 47.8644 29.2292 48.5168 29.4812C49.1692 29.7361 49.8944 29.8648 50.6672 29.8648C51.4708 29.8648 52.224 29.7248 52.9044 29.4504C53.5848 29.176 54.1756 28.7868 54.6544 28.2968C55.1445 27.7984 55.528 27.1964 55.7997 26.5104C56.0685 25.8272 56.2057 25.0628 56.2057 24.2396C56.2057 23.4164 56.0685 22.652 55.7997 21.966C55.5336 21.28 55.1472 20.6809 54.66 20.1796ZM50.6728 28.0196C50.1408 28.0196 49.648 27.9301 49.2196 27.7564C48.794 27.5716 48.4244 27.314 48.122 26.992C47.8196 26.67 47.5816 26.2724 47.4136 25.8104C47.2456 25.3429 47.1588 24.8137 47.1588 24.2368C47.1588 23.6628 47.2456 23.1336 47.4136 22.6632C47.5788 22.2012 47.8196 21.8036 48.122 21.4816C48.4244 21.1596 48.794 20.902 49.214 20.72C49.6508 20.5436 50.1408 20.4541 50.6728 20.4541C51.2048 20.4541 51.6892 20.5436 52.1176 20.72C52.5488 20.8936 52.9212 21.1484 53.2236 21.4816C53.526 21.8036 53.764 22.2012 53.932 22.6632C54.1 23.1308 54.1868 23.66 54.1868 24.2368C54.1868 24.8136 54.1 25.3428 53.932 25.8104C53.7668 26.2724 53.526 26.6701 53.2236 26.992C52.9212 27.314 52.546 27.5688 52.1148 27.7536C51.6892 27.9301 51.2048 28.0196 50.6728 28.0196Z" fill="#215387"/>
<path d="M64.8826 19.7569C64.5578 19.4433 64.1405 19.1969 63.6422 19.0205C63.1494 18.8469 62.5642 18.7601 61.9006 18.7601L58.3193 18.76V29.7165H60.2989V25.5193H61.9006C62.5642 25.5193 63.1493 25.4325 63.6422 25.2589C64.1434 25.0825 64.5606 24.8361 64.8826 24.5225C65.2073 24.2089 65.4482 23.8421 65.5994 23.4277C65.7478 23.0245 65.8234 22.5905 65.8234 22.1397C65.8234 21.6889 65.7478 21.2548 65.5994 20.8516C65.4509 20.44 65.2073 20.0704 64.8826 19.7569ZM60.3017 20.6053H61.9033C62.6005 20.6053 63.1017 20.7397 63.3929 21.0029C63.6898 21.2745 63.8353 21.6469 63.8353 22.1397C63.8353 22.6325 63.6897 23.0049 63.3957 23.2765C63.1073 23.5398 62.6061 23.6742 61.9061 23.6742L60.3017 23.674V20.6053Z" fill="#215387"/>
<path d="M69.9031 26.1129V18.76H67.9375V29.7165H69.7855L74.7779 22.3525V29.7165H76.7435V18.76H74.8955L69.9031 26.1129Z" fill="#215387"/>
<path d="M87.1541 26.5076C86.8685 26.9528 86.4821 27.3224 86.0117 27.608C85.5441 27.8824 84.9813 28.0225 84.3317 28.0225C83.8305 28.0225 83.3601 27.9329 82.9401 27.7592C82.5257 27.5744 82.1589 27.3169 81.8593 26.9977C81.5541 26.6645 81.3077 26.2585 81.1341 25.7965C80.9661 25.34 80.8793 24.8165 80.8793 24.2396C80.8793 23.674 80.9633 23.156 81.1341 22.6969C81.3021 22.232 81.5373 21.8261 81.8313 21.4957C82.1253 21.1736 82.4809 20.9189 82.8841 20.7341C83.2873 20.5521 83.7353 20.4569 84.2141 20.4569C84.7405 20.4569 85.2389 20.5633 85.6953 20.7789C86.1573 20.9833 86.5606 21.2773 86.8937 21.6553L87.0589 21.8429L88.4617 20.6026L88.3021 20.4149C87.8625 19.9025 87.2829 19.4713 86.5773 19.1269C85.8689 18.7825 85.0681 18.6089 84.1973 18.6089C83.4497 18.6089 82.7413 18.7462 82.0805 19.0177C81.4365 19.2977 80.8653 19.6953 80.3865 20.1937C79.9189 20.6837 79.5409 21.2773 79.2581 21.9633C78.9893 22.6549 78.8521 23.4193 78.8521 24.2341C78.8521 25.0489 78.9893 25.8077 79.2581 26.4937C79.5381 27.1769 79.9245 27.7761 80.4089 28.2745C80.8932 28.7757 81.4785 29.1677 82.1421 29.4365C82.8057 29.7166 83.5421 29.8594 84.3317 29.8594C85.2864 29.8594 86.1377 29.6522 86.8601 29.2433C87.5657 28.8373 88.1705 28.2745 88.6577 27.5717L88.7976 27.3701L87.2941 26.2781L87.1541 26.5076Z" fill="#215387"/>
<path d="M89.9204 20.6053H93.3252V29.7165H95.3216V20.6053H98.7264V18.76H89.9204V20.6053Z" fill="#215387"/>
<path d="M101.353 27.7229H99.3594V29.7165H101.353V27.7229Z" fill="#215387"/>
<path d="M110.403 19.7569C110.078 19.4433 109.661 19.1969 109.162 19.0205C108.669 18.8469 108.084 18.7601 107.421 18.7601L103.839 18.76V29.7165H105.819V25.5193H107.421C108.084 25.5193 108.669 25.4325 109.162 25.2589C109.663 25.0825 110.081 24.8361 110.403 24.5225C110.727 24.2089 110.968 23.8421 111.119 23.4277C111.268 23.0245 111.343 22.5905 111.343 22.1397C111.343 21.6889 111.268 21.2548 111.119 20.8516C110.968 20.44 110.727 20.0704 110.403 19.7569ZM105.819 20.6053H107.421C108.118 20.6053 108.619 20.7397 108.91 21.0029C109.207 21.2745 109.353 21.6469 109.353 22.1397C109.353 22.6325 109.207 23.0049 108.913 23.2765C108.625 23.5398 108.123 23.6742 107.423 23.6742L105.822 23.674V20.6053H105.819Z" fill="#215387"/>
<path d="M125.609 22.1816C125.363 21.6244 125.013 21.14 124.568 20.7368C124.117 20.3392 123.574 20.0228 122.947 19.7932C122.325 19.5748 121.628 19.4656 120.877 19.4656H120.499V18.1664H118.506V19.4656H118.128C117.366 19.4656 116.666 19.5748 116.039 19.7932C115.415 20.0228 114.874 20.3392 114.437 20.7368C113.984 21.1372 113.631 21.6244 113.387 22.1845C113.147 22.7417 113.023 23.3605 113.023 24.0241C113.023 24.6877 113.147 25.3064 113.387 25.8637C113.631 26.4236 113.984 26.9108 114.435 27.3085C114.874 27.7088 115.417 28.0196 116.045 28.2409C116.666 28.4593 117.366 28.5685 118.128 28.5685H118.506V29.7193H120.499V28.5685H120.877C121.628 28.5685 122.325 28.4593 122.947 28.2409C123.571 28.0225 124.117 27.7088 124.571 27.3085C125.013 26.9081 125.363 26.4236 125.609 25.8665C125.856 25.3093 125.982 24.6905 125.982 24.0241C125.982 23.3576 125.856 22.7389 125.609 22.1816ZM118.128 26.7373C117.131 26.7373 116.361 26.4908 115.835 26.0036C115.305 25.5164 115.048 24.8696 115.048 24.0212C115.048 23.1757 115.305 22.5232 115.835 22.0304C116.361 21.5404 117.134 21.2912 118.128 21.2912H118.506V26.7344H118.128V26.7373ZM120.499 21.2941H120.877C121.863 21.2941 122.633 21.5432 123.165 22.0333C123.7 22.526 123.957 23.1757 123.957 24.0212C123.957 24.8668 123.697 25.5136 123.165 26.0008C122.633 26.488 121.863 26.7344 120.877 26.7344H120.499V21.2941Z" fill="#215387"/>
</svg>
