<svg width="126" height="30" viewBox="0 0 126 30" fill="none" xmlns="http://www.w3.org/2000/svg">
<path d="M20.0156 2.57632C20.1164 2.57632 20.2175 2.56783 20.3154 2.59585C20.2902 2.64067 20.256 2.67944 20.2168 2.71304C17.2572 5.23019 14.2976 7.75069 11.3408 10.2707C11.3242 10.307 11.3359 10.3517 11.336 10.3908C11.8764 10.9255 12.3912 11.4916 12.9932 11.9591C13.7212 12.5107 14.5754 12.9246 15.4854 13.0451C15.796 13.0535 16.1122 13.0733 16.4229 13.0314C17.3523 12.9138 18.2234 12.4826 18.9317 11.8751C19.5645 11.3627 20.1782 10.8302 20.7998 10.3039C20.9089 10.2537 20.985 10.374 21.0606 10.4328C23.9221 12.8687 26.7831 15.3083 29.6475 17.7443C29.8714 17.9375 30.1181 18.1193 30.2832 18.3712C30.426 18.5896 30.5217 18.8473 30.5244 19.1105C30.5551 19.6227 30.2692 20.1264 29.8467 20.4064C29.2392 20.8235 28.3767 20.81 27.7803 20.3791C27.6599 20.3035 27.5535 20.2077 27.4444 20.1154C25.9408 18.8442 24.4393 17.57 22.9385 16.296C22.779 16.1589 22.5911 16.0244 22.3701 16.0216C22.1491 16.0274 21.9781 16.1929 21.8633 16.3664C21.7765 16.5035 21.7008 16.6691 21.7344 16.8341C21.7652 16.9629 21.8277 17.0855 21.9229 17.1779C22.1132 17.3739 22.3346 17.5369 22.5362 17.7189C23.7624 18.7632 24.9858 19.8132 26.2149 20.8546C26.3829 21.0058 26.5764 21.1349 26.708 21.3224C26.8983 21.5688 27.0043 21.8769 27.0127 22.1847C27.0099 22.5682 26.8224 22.9265 26.5508 23.1896C26.1673 23.5283 25.6384 23.6908 25.1289 23.6349C24.7902 23.5845 24.4428 23.478 24.1768 23.2541C22.9505 22.2238 21.7351 21.174 20.5088 20.1437C20.3437 20.0094 20.1476 19.8612 19.9209 19.8917C19.6046 19.9729 19.3239 20.2581 19.3154 20.5968C19.321 20.8124 19.4364 21.0172 19.6016 21.1544C20.5927 21.9915 21.5754 22.8346 22.5694 23.6662C22.9109 23.9685 23.28 24.2989 23.4004 24.758C23.5208 25.1778 23.3676 25.6257 23.127 25.9728C22.917 26.3088 22.561 26.5446 22.1719 26.6203C21.7632 26.6875 21.3264 26.6701 20.9512 26.4826C20.744 26.393 20.5614 26.259 20.3906 26.1134C19.6011 25.4499 18.8173 24.7776 18.0362 24.1056C17.8905 23.9936 17.7391 23.8589 17.5459 23.8449C17.1149 23.7946 16.7565 24.2536 16.8067 24.6623C16.8458 24.8135 16.936 24.9485 17.0508 25.0548C17.5491 25.4719 18.0416 25.8948 18.5371 26.3175C18.775 26.5302 19.0382 26.7175 19.251 26.9582C19.559 27.3081 19.7327 27.7678 19.7383 28.2326C19.7131 28.4957 19.6687 28.7645 19.5205 28.9884C19.2602 29.4195 18.77 29.6663 18.2774 29.714C17.933 29.7588 17.5766 29.6883 17.2686 29.5343C16.9355 29.3495 16.6552 29.0917 16.3613 28.8566C12.8867 25.8887 9.41429 22.915 5.9424 19.9416C4.01053 18.3064 2.11479 16.6515 0.188496 15.0304C-0.00713929 14.896 -0.0546094 14.608 0.0654494 14.4093C2.23547 10.4922 4.4033 6.57459 6.57326 2.65737C6.59563 2.59595 6.66217 2.57083 6.72365 2.57632H20.0156ZM29.1074 2.57339C29.2362 2.57621 29.4159 2.53964 29.4805 2.68765C31.6813 6.66367 33.8794 10.6403 36.083 14.6164C36.1026 14.6581 36.1303 14.7 36.1221 14.7501C36.0746 14.8396 35.9877 14.8987 35.9121 14.963C34.7445 15.9571 33.5768 16.9544 32.4092 17.9484C32.356 17.9932 32.3001 18.0324 32.2442 18.0744C32.1379 18.0101 32.051 17.9202 31.9531 17.8419C28.3131 14.7479 24.6751 11.6537 21.0352 8.55972C20.9737 8.50384 20.9124 8.45041 20.8369 8.41128C19.8458 9.24564 18.8742 10.1053 17.8662 10.9201C17.5778 11.1497 17.2469 11.3178 16.9053 11.4494C16.6646 11.5305 16.4207 11.6234 16.1631 11.6291C16.16 11.6346 16.1521 11.6429 16.1494 11.6457C15.7491 11.6708 15.3457 11.6086 14.9678 11.4826C14.4051 11.2726 13.8844 10.9424 13.4561 10.5197C13.4225 10.4889 13.3972 10.4496 13.3692 10.4132C14.1979 9.69087 15.0436 8.98548 15.8779 8.2687C18.0563 6.41224 20.2267 4.56093 22.3994 2.71011C22.5086 2.61515 22.6512 2.5734 22.791 2.57339H29.1074Z" fill="white"/>
<path d="M45.8343 13.7032C46.5287 13.7032 47.1363 13.608 47.6375 13.4204C48.1359 13.2412 48.5559 12.992 48.8863 12.684C49.2223 12.3816 49.4714 12.026 49.6255 11.6312C49.7738 11.2364 49.8494 10.8332 49.8494 10.4384C49.8494 9.7132 49.6282 9.08884 49.1887 8.58484C48.875 8.23204 48.4747 7.96042 47.9959 7.77286C48.3431 7.56004 48.6343 7.29124 48.8611 6.97204C49.2083 6.48202 49.3847 5.92204 49.3847 5.30326C49.3847 4.93648 49.3203 4.57528 49.1859 4.21966C49.0431 3.87808 48.8191 3.57004 48.5195 3.30406C48.2171 3.04648 47.8335 2.83366 47.3743 2.67406C46.9235 2.52844 46.3747 2.45284 45.7447 2.45284C45.4199 2.45284 45.0811 2.48926 44.7367 2.56204C44.4062 2.63482 44.0815 2.73286 43.7707 2.85886C43.457 2.98486 43.1603 3.14164 42.8943 3.32644C42.6255 3.51124 42.3931 3.71284 42.1999 3.92566L42.0599 4.07968L43.2303 5.61406L43.4319 5.39848C43.7287 5.0821 44.0955 4.81048 44.5155 4.58926C44.9243 4.37644 45.3443 4.26724 45.7587 4.26724C46.3719 4.26724 46.8059 4.36804 47.0467 4.56682C47.2735 4.75444 47.3883 5.08762 47.3883 5.55244C47.3883 5.95846 47.2399 6.28042 46.9431 6.53806C46.6183 6.80128 46.2095 6.93004 45.6971 6.93004H43.9387V8.75842H45.8931C46.5315 8.75842 47.0215 8.91244 47.3491 9.21202C47.6796 9.52282 47.8391 9.90364 47.8391 10.374C47.8391 10.5617 47.8055 10.7465 47.7355 10.9256C47.6683 11.102 47.5675 11.256 47.4387 11.3848C47.2931 11.5192 47.1027 11.634 46.8675 11.7208C46.6295 11.8104 46.3271 11.8552 45.9687 11.8552C45.3359 11.8552 44.7787 11.7292 44.3139 11.4828C43.8351 11.214 43.4011 10.9116 43.0259 10.5868L42.8411 10.4244L41.4663 11.9364L41.6707 12.1044C42.2111 12.544 42.8103 12.9192 43.4543 13.2272C44.1123 13.5436 44.9131 13.7032 45.8343 13.7032Z" fill="white"/>
<path d="M60.2407 13.552V2.59841H58.2472V6.73403H53.3724V2.59841H51.376V13.552H53.3724V8.57921H58.2472V13.552H60.2407Z" fill="white"/>
<path d="M64.1774 10.9984H68.3466L69.363 13.552H71.4882L67.0754 2.59841H65.4514L61.0386 13.5548H63.1638L64.1774 10.9984ZM64.9166 9.15323L66.2634 5.79041L67.6102 9.15323H64.9166Z" fill="white"/>
<path d="M74.1733 10.0969L75.3297 8.78081L79.0593 13.5688H81.5457L76.654 7.28003L80.7813 2.59841H78.4096L74.1733 7.41161V2.59841H72.2104V13.552H74.1733V10.0969Z" fill="white"/>
<path d="M80.8457 10.3516C81.1257 11.0376 81.5205 11.6368 82.0217 12.138C82.5201 12.628 83.1249 13.0172 83.8249 13.2972C84.5192 13.566 85.292 13.7032 86.1264 13.7032C86.9609 13.7032 87.7337 13.566 88.4309 13.2972C89.1253 13.0172 89.7301 12.628 90.2313 12.138C90.7409 11.6368 91.1385 11.0348 91.4073 10.3516C91.6873 9.66838 91.8301 8.90398 91.8301 8.0836C91.8301 7.26322 91.6901 6.49882 91.4157 5.81002C91.1413 5.1184 90.7409 4.5136 90.2313 4.01242C89.7329 3.5224 89.1281 3.13324 88.4281 2.85322C87.7337 2.58442 86.9609 2.4472 86.1265 2.4472C85.2921 2.4472 84.5193 2.58442 83.8221 2.85322C83.1277 3.13324 82.5229 3.5224 82.0217 4.01242C81.5232 4.51084 81.1257 5.11564 80.8457 5.80444C80.5656 6.49324 80.4229 7.25764 80.4229 8.07802C80.4229 8.90404 80.5657 9.66562 80.8457 10.3516ZM86.1237 4.29244C86.6865 4.29244 87.1989 4.38202 87.6413 4.55842C88.0949 4.74322 88.4841 5.0008 88.7949 5.32282C89.1085 5.64484 89.3549 6.0424 89.5313 6.50722C89.7077 6.9748 89.8001 7.504 89.8001 8.0836C89.8001 8.6632 89.7105 9.18958 89.5341 9.65158C89.3577 10.1108 89.1113 10.5056 88.7949 10.8304C88.4841 11.1608 88.0977 11.4156 87.6441 11.592C87.1989 11.7684 86.6865 11.858 86.1237 11.858C85.5693 11.858 85.0569 11.7684 84.6033 11.592C84.1609 11.4184 83.7745 11.1608 83.4525 10.8304C83.1389 10.5084 82.8925 10.1108 82.7161 9.6544C82.5397 9.1924 82.4501 8.66602 82.4501 8.08642C82.4501 7.50682 82.5397 6.97762 82.7189 6.51004C82.8953 6.04804 83.1418 5.64766 83.4526 5.32846C83.7746 5.00644 84.1665 4.74604 84.6062 4.56406C85.0597 4.38202 85.5721 4.29244 86.1237 4.29244Z" fill="white"/>
<path d="M98.0266 9.74963L94.6022 2.59841H92.7598V13.552H94.7226V7.04765L97.181 12.208H98.8721L101.331 7.04765V13.552H103.296V2.59841H101.454L98.0266 9.74963Z" fill="white"/>
<path d="M111.598 7.78961C111.274 7.47599 110.856 7.22963 110.358 7.05323C109.865 6.87965 109.28 6.79283 108.616 6.79283H107.015V2.59841H105.035V13.5548H108.616C109.28 13.5548 109.865 13.468 110.358 13.2944C110.859 13.118 111.276 12.8716 111.598 12.5581C111.923 12.2444 112.164 11.8777 112.315 11.4632C112.464 11.0572 112.539 10.6261 112.539 10.1752C112.539 9.72443 112.464 9.29039 112.315 8.88719C112.164 8.47283 111.923 8.10323 111.598 7.78961ZM107.015 8.63801H108.616C109.314 8.63801 109.815 8.77241 110.106 9.03563C110.403 9.30725 110.548 9.67961 110.548 10.1725C110.548 10.6652 110.403 11.0377 110.109 11.3093C109.82 11.5725 109.319 11.7069 108.619 11.7069L107.018 11.7068V8.63801H107.015Z" fill="white"/>
<path d="M115.196 2.59849H113.203V13.5549H115.196V2.59849Z" fill="white"/>
<path d="M119.704 2.25684C120.18 2.45844 120.729 2.55924 121.334 2.55924C121.936 2.55924 122.49 2.45844 122.977 2.25684C123.47 2.04966 123.876 1.69962 124.181 1.22082L124.307 1.02204L122.916 6.00014e-05L122.765 0.17646C122.65 0.31086 122.543 0.42564 122.44 0.52926C122.356 0.62166 122.263 0.70284 122.165 0.77004C122.068 0.82602 121.955 0.87084 121.829 0.90444C121.703 0.93804 121.538 0.95484 121.342 0.95484C121.146 0.95484 120.978 0.93804 120.844 0.90162C120.715 0.86802 120.6 0.8232 120.502 0.76722C120.401 0.70002 120.309 0.61884 120.228 0.5292L120.22 0.5208C120.124 0.4284 120.021 0.3108 119.903 0.1764L119.752 0L118.36 1.02198L118.486 1.22076C118.791 1.69962 119.2 2.04966 119.704 2.25684Z" fill="white"/>
<path d="M123.778 6.18803V13.552H125.741V2.59841H123.896L118.904 9.94841V2.59841H116.938V13.552H118.783L123.778 6.18803Z" fill="white"/>
<path d="M54.66 20.1796C54.1812 19.6896 53.5904 19.3004 52.91 19.026C52.2296 18.7516 51.4792 18.6116 50.6728 18.6116C49.9504 18.6116 49.27 18.7236 48.6456 18.9476C48.0211 19.1716 47.4667 19.4908 46.9992 19.8968C46.5204 20.3028 46.12 20.7984 45.8119 21.364C45.5376 21.8708 45.3415 22.4308 45.2295 23.0327L44.1684 23.0329V18.76H42.1748V29.7164H44.1684V24.878H45.1512C45.2184 25.5613 45.3836 26.1968 45.6384 26.768C45.924 27.4093 46.3132 27.9608 46.7948 28.4089C47.2848 28.868 47.8644 29.2292 48.5168 29.4812C49.1692 29.7361 49.8944 29.8648 50.6672 29.8648C51.4708 29.8648 52.224 29.7248 52.9044 29.4504C53.5848 29.176 54.1756 28.7868 54.6544 28.2968C55.1445 27.7984 55.528 27.1964 55.7997 26.5104C56.0685 25.8272 56.2057 25.0628 56.2057 24.2396C56.2057 23.4164 56.0685 22.652 55.7997 21.966C55.5336 21.28 55.1472 20.6809 54.66 20.1796ZM50.6728 28.0196C50.1408 28.0196 49.648 27.9301 49.2196 27.7564C48.794 27.5716 48.4244 27.314 48.122 26.992C47.8196 26.67 47.5816 26.2724 47.4136 25.8104C47.2456 25.3429 47.1588 24.8137 47.1588 24.2368C47.1588 23.6628 47.2456 23.1336 47.4136 22.6632C47.5788 22.2012 47.8196 21.8036 48.122 21.4816C48.4244 21.1596 48.794 20.902 49.214 20.72C49.6508 20.5436 50.1408 20.4541 50.6728 20.4541C51.2048 20.4541 51.6892 20.5436 52.1176 20.72C52.5488 20.8936 52.9212 21.1484 53.2236 21.4816C53.526 21.8036 53.764 22.2012 53.932 22.6632C54.1 23.1308 54.1868 23.66 54.1868 24.2368C54.1868 24.8136 54.1 25.3428 53.932 25.8104C53.7668 26.2724 53.526 26.6701 53.2236 26.992C52.9212 27.314 52.546 27.5688 52.1148 27.7536C51.6892 27.9301 51.2048 28.0196 50.6728 28.0196Z" fill="white"/>
<path d="M64.883 19.7569C64.5583 19.4433 64.141 19.1969 63.6427 19.0205C63.1499 18.8469 62.5646 18.7601 61.901 18.7601L58.3198 18.76V29.7165H60.2994V25.5193H61.901C62.5646 25.5193 63.1498 25.4325 63.6427 25.2589C64.1438 25.0825 64.5611 24.8361 64.883 24.5225C65.2078 24.2089 65.4487 23.8421 65.5999 23.4277C65.7482 23.0245 65.8238 22.5905 65.8238 22.1397C65.8238 21.6889 65.7482 21.2548 65.5999 20.8516C65.4514 20.44 65.2078 20.0704 64.883 19.7569ZM60.3022 20.6053H61.9038C62.601 20.6053 63.1022 20.7397 63.3934 21.0029C63.6902 21.2745 63.8358 21.6469 63.8358 22.1397C63.8358 22.6325 63.6902 23.0049 63.3962 23.2765C63.1078 23.5398 62.6066 23.6742 61.9066 23.6742L60.3022 23.674V20.6053Z" fill="white"/>
<path d="M69.9036 26.1129V18.76H67.938V29.7165H69.786L74.7784 22.3525V29.7165H76.744V18.76H74.896L69.9036 26.1129Z" fill="white"/>
<path d="M87.1541 26.5076C86.8685 26.9528 86.4821 27.3224 86.0117 27.608C85.5441 27.8824 84.9813 28.0225 84.3317 28.0225C83.8305 28.0225 83.3601 27.9329 82.9401 27.7592C82.5257 27.5744 82.1589 27.3169 81.8593 26.9977C81.5541 26.6645 81.3077 26.2585 81.1341 25.7965C80.9661 25.34 80.8793 24.8165 80.8793 24.2396C80.8793 23.674 80.9633 23.156 81.1341 22.6969C81.3021 22.232 81.5373 21.8261 81.8313 21.4957C82.1253 21.1736 82.4809 20.9189 82.8841 20.7341C83.2873 20.5521 83.7353 20.4569 84.2141 20.4569C84.7405 20.4569 85.2389 20.5633 85.6953 20.7789C86.1573 20.9833 86.5606 21.2773 86.8937 21.6553L87.0589 21.8429L88.4617 20.6026L88.3021 20.4149C87.8625 19.9025 87.2829 19.4713 86.5773 19.1269C85.8689 18.7825 85.0681 18.6089 84.1973 18.6089C83.4497 18.6089 82.7413 18.7462 82.0805 19.0177C81.4365 19.2977 80.8653 19.6953 80.3865 20.1937C79.9189 20.6837 79.5409 21.2773 79.2581 21.9633C78.9893 22.6549 78.8521 23.4193 78.8521 24.2341C78.8521 25.0489 78.9893 25.8077 79.2581 26.4937C79.5381 27.1769 79.9245 27.7761 80.4089 28.2745C80.8932 28.7757 81.4785 29.1677 82.1421 29.4365C82.8057 29.7166 83.5421 29.8594 84.3317 29.8594C85.2864 29.8594 86.1377 29.6522 86.8601 29.2433C87.5657 28.8373 88.1705 28.2745 88.6577 27.5717L88.7976 27.3701L87.2941 26.2781L87.1541 26.5076Z" fill="white"/>
<path d="M89.9204 20.6053H93.3252V29.7165H95.3216V20.6053H98.7264V18.76H89.9204V20.6053Z" fill="white"/>
<path d="M101.353 27.7229H99.3594V29.7165H101.353V27.7229Z" fill="white"/>
<path d="M110.403 19.7569C110.078 19.4433 109.661 19.1969 109.162 19.0205C108.669 18.8469 108.084 18.7601 107.421 18.7601L103.839 18.76V29.7165H105.819V25.5193H107.421C108.084 25.5193 108.669 25.4325 109.162 25.2589C109.663 25.0825 110.081 24.8361 110.403 24.5225C110.727 24.2089 110.968 23.8421 111.119 23.4277C111.268 23.0245 111.343 22.5905 111.343 22.1397C111.343 21.6889 111.268 21.2548 111.119 20.8516C110.968 20.44 110.727 20.0704 110.403 19.7569ZM105.819 20.6053H107.421C108.118 20.6053 108.619 20.7397 108.91 21.0029C109.207 21.2745 109.353 21.6469 109.353 22.1397C109.353 22.6325 109.207 23.0049 108.913 23.2765C108.625 23.5398 108.123 23.6742 107.423 23.6742L105.822 23.674V20.6053H105.819Z" fill="white"/>
<path d="M125.609 22.1816C125.363 21.6244 125.013 21.14 124.568 20.7368C124.117 20.3392 123.574 20.0228 122.947 19.7932C122.325 19.5748 121.628 19.4656 120.877 19.4656H120.499V18.1664H118.506V19.4656H118.128C117.366 19.4656 116.666 19.5748 116.039 19.7932C115.415 20.0228 114.874 20.3392 114.437 20.7368C113.984 21.1372 113.631 21.6244 113.387 22.1845C113.147 22.7417 113.023 23.3605 113.023 24.0241C113.023 24.6877 113.147 25.3064 113.387 25.8637C113.631 26.4236 113.984 26.9108 114.435 27.3085C114.874 27.7088 115.417 28.0196 116.045 28.2409C116.666 28.4593 117.366 28.5685 118.128 28.5685H118.506V29.7193H120.499V28.5685H120.877C121.628 28.5685 122.325 28.4593 122.947 28.2409C123.571 28.0225 124.117 27.7088 124.571 27.3085C125.013 26.9081 125.363 26.4236 125.609 25.8665C125.856 25.3093 125.982 24.6905 125.982 24.0241C125.982 23.3576 125.856 22.7389 125.609 22.1816ZM118.128 26.7373C117.131 26.7373 116.361 26.4908 115.835 26.0036C115.305 25.5164 115.048 24.8696 115.048 24.0212C115.048 23.1757 115.305 22.5232 115.835 22.0304C116.361 21.5404 117.134 21.2912 118.128 21.2912H118.506V26.7344H118.128V26.7373ZM120.499 21.2941H120.877C121.863 21.2941 122.633 21.5432 123.165 22.0333C123.7 22.526 123.957 23.1757 123.957 24.0212C123.957 24.8668 123.697 25.5136 123.165 26.0008C122.633 26.488 121.863 26.7344 120.877 26.7344H120.499V21.2941Z" fill="white"/>
</svg>
