<svg width="732" height="550" viewBox="0 0 732 550" fill="none" xmlns="http://www.w3.org/2000/svg">
<g style="mix-blend-mode:overlay" opacity="0.08">
<path d="M405.389 0.09375C407.43 0.09375 409.472 -0.0761561 411.456 0.491211C410.946 1.39896 410.265 2.19253 409.472 2.87305C349.529 53.8549 289.587 104.895 229.701 155.934C229.361 156.671 229.589 157.577 229.589 158.372C240.534 169.203 250.968 180.66 263.161 190.13C277.905 201.301 295.203 209.695 313.633 212.134C319.927 212.304 326.335 212.701 332.63 211.851C351.457 209.469 369.096 200.735 383.442 188.43C396.259 178.052 408.678 167.276 421.268 156.615C423.479 155.594 425.011 158.034 426.542 159.225C484.499 208.562 542.458 257.956 600.472 307.294C605.008 311.207 609.999 314.893 613.345 319.997C616.237 324.42 618.166 329.638 618.222 334.969C618.845 345.347 613.06 355.554 604.498 361.226C592.192 369.675 574.726 369.392 562.646 360.658C560.208 359.127 558.052 357.199 555.841 355.327C525.388 329.58 494.991 303.777 464.594 277.975C461.361 275.196 457.561 272.474 453.082 272.418C448.602 272.531 445.143 275.878 442.817 279.394C441.059 282.173 439.528 285.518 440.208 288.863C440.831 291.472 442.08 293.967 444.009 295.839C447.865 299.809 452.345 303.097 456.428 306.784C481.267 327.937 506.048 349.204 530.944 370.3C534.347 373.362 538.261 375.971 540.926 379.77C544.782 384.76 546.937 390.999 547.107 397.236C547.05 405.005 543.251 412.265 537.75 417.595C529.981 424.457 519.262 427.745 508.94 426.611C502.078 425.591 495.047 423.436 489.659 418.898C464.82 398.03 440.208 376.764 415.369 355.894C412.024 353.171 408.053 350.166 403.46 350.789C397.052 352.433 391.381 358.218 391.211 365.08C391.324 369.446 393.65 373.587 396.995 376.366C417.07 393.322 436.976 410.392 457.108 427.235C464.026 433.36 471.512 440.052 473.951 449.352C476.39 457.858 473.271 466.933 468.395 473.964C464.141 480.769 456.938 485.532 449.057 487.063C440.777 488.425 431.93 488.084 424.33 484.284C420.134 482.47 416.447 479.748 412.988 476.799C396.996 463.359 381.117 449.748 365.295 436.138C362.346 433.869 359.283 431.146 355.37 430.863C346.637 429.843 339.379 439.143 340.399 447.423C341.193 450.485 343.008 453.208 345.333 455.362C355.428 463.812 365.409 472.375 375.446 480.938C380.267 485.249 385.597 489.048 389.907 493.926C396.145 501.014 399.661 510.315 399.774 519.729C399.264 525.06 398.357 530.504 395.352 535.04C390.078 543.774 380.152 548.764 370.172 549.729C363.197 550.636 355.994 549.218 349.756 546.099C343.008 542.356 337.336 537.139 331.382 532.375C261.005 472.262 190.685 412.036 120.364 351.811C81.2344 318.691 42.842 285.175 3.8252 252.34C-0.14491 249.618 -1.10886 243.776 1.33008 239.75C45.2807 160.414 89.1746 81.0759 133.124 1.73828C133.577 0.490577 134.938 -0.0203055 136.186 0.09375H405.389ZM589.535 0.0410156C592.144 0.0980716 595.773 -0.639746 597.078 2.36523C641.652 82.8938 686.169 163.422 730.8 243.95C731.197 244.801 731.764 245.651 731.594 246.672C730.63 248.486 728.871 249.677 727.34 250.982C703.692 271.115 680.044 291.303 656.396 311.436C655.319 312.343 654.185 313.138 653.051 313.988C650.896 312.684 649.138 310.868 647.153 309.281C573.43 246.616 499.763 183.953 426.041 121.288C424.793 120.154 423.547 119.076 422.016 118.282C401.94 135.182 382.262 152.591 361.847 169.094C356.005 173.744 349.314 177.148 342.395 179.812C337.518 181.457 332.583 183.328 327.365 183.442C327.308 183.555 327.139 183.725 327.083 183.782C318.974 184.293 310.807 183.045 303.151 180.493C291.753 176.24 281.205 169.548 272.528 160.985C271.848 160.362 271.337 159.566 270.77 158.83C287.555 144.199 304.682 129.909 321.581 115.391C365.701 77.7907 409.652 40.306 453.658 2.82031C455.87 0.891866 458.762 0.0411028 461.597 0.0410156H589.535Z" fill="white"/>
</g>
</svg>
