<svg width="20" height="20" viewBox="0 0 20 20" fill="none" xmlns="http://www.w3.org/2000/svg">
<path fill-rule="evenodd" clip-rule="evenodd" d="M10.2149 19.9429C8.25212 19.9429 7.34 19.6552 5.75452 18.504C4.75166 19.799 1.57593 20.8111 1.43744 19.0796C1.43744 17.7798 1.1509 16.6815 0.826168 15.4824C0.439349 14.0051 0 12.36 0 9.97626C0 4.28308 4.65137 0 10.1623 0C15.6781 0 19.9999 4.49411 19.9999 10.029C20.0088 12.6461 18.9835 15.1599 17.149 17.0186C15.3145 18.8772 12.8207 19.929 10.2149 19.9429ZM10.2961 4.92098C7.6122 4.78189 5.52052 6.64764 5.05729 9.57337C4.67525 11.9955 5.35338 14.9452 5.93122 15.0987C6.2082 15.1658 6.90542 14.5999 7.34 14.1634C8.05859 14.662 8.89538 14.9614 9.76597 15.0315C11.1028 15.0961 12.4114 14.6314 13.4107 13.7372C14.41 12.843 15.02 11.5908 15.1098 10.2496C15.162 8.90574 14.6869 7.59493 13.7867 6.59927C12.8864 5.60362 11.633 5.00268 10.2961 4.92578V4.92098Z" fill="#215387"/>
</svg>
