<svg width="36" height="36" viewBox="0 0 36 36" fill="none" xmlns="http://www.w3.org/2000/svg">
<path fill-rule="evenodd" clip-rule="evenodd" d="M18.9219 0L30.0596 10.9092V16.9121C29.1452 16.594 28.1804 16.418 27.1846 16.418C24.9611 16.418 22.8723 17.2513 21.2529 18.7568H6.10254V20.6973H19.6807C19.2035 21.4978 18.8541 22.3686 18.6562 23.2842H6.10254V25.2236H18.4561C18.4625 26.1134 18.6047 26.9829 18.8672 27.8105C18.8672 27.8105 19.418 29.1894 19.7686 29.751C20.1191 30.3123 20.5286 30.8434 21.0098 31.3232C22.6576 32.9722 24.85 33.8799 27.1807 33.8799C28.1779 33.8799 29.1441 33.7039 30.0586 33.3857V36H1.38477V0H18.9219ZM6.10254 14.2295V16.1699H25.3428V14.2295H6.10254ZM19.4951 10.3486H26.7109L19.4951 3.2793V10.3486Z" fill="white"/>
<path fill-rule="evenodd" clip-rule="evenodd" d="M27.1787 17.7129C29.1652 17.7129 31.0327 18.485 32.4385 19.8906C33.8423 21.2945 34.6161 23.1639 34.6152 25.1494C34.6161 27.1368 33.8432 29.0034 32.4385 30.4082C32.0001 30.8465 31.517 31.2241 30.999 31.5352C29.8578 32.2194 28.5483 32.584 27.1826 32.584C25.1961 32.5858 23.3277 31.813 21.9229 30.4082C20.5181 29.0034 19.7471 27.1349 19.7471 25.1484C19.7472 23.162 20.5191 21.2944 21.9248 19.8887C22.8998 18.9138 24.0992 18.2425 25.4062 17.9238C25.9796 17.7847 26.5737 17.7129 27.1787 17.7129ZM27.1807 23.7783L24.8164 21.4141L23.4443 22.7861L25.8086 25.1504L23.4482 27.5107L24.8203 28.8828L27.1807 26.5225L29.541 28.8828L30.9131 27.5107L28.5527 25.1504L30.917 22.7861L29.5449 21.4141L27.1807 23.7783Z" fill="white"/>
</svg>
