<svg width="36" height="36" viewBox="0 0 36 36" fill="none" xmlns="http://www.w3.org/2000/svg">
<path d="M26.4035 22.654L16.1819 35.5416C16.0698 35.6844 15.9266 35.7999 15.7633 35.8793C15.6 35.9587 15.4207 36 15.2391 36C15.0575 36 14.8783 35.9587 14.7149 35.8793C14.5516 35.7999 14.4085 35.6844 14.2963 35.5416L4.10065 22.654C3.95859 22.4777 3.86936 22.2648 3.8433 22.0399C3.81723 21.815 3.85539 21.5874 3.95336 21.3833C4.05133 21.1792 4.2051 21.007 4.39688 20.8866C4.58865 20.7663 4.81058 20.7028 5.03698 20.7033H8.91235C9.06989 20.7048 9.22615 20.6749 9.37199 20.6153C9.51783 20.5558 9.65033 20.4677 9.76173 20.3563C9.87313 20.2449 9.9612 20.1124 10.0208 19.9665C10.0804 19.8207 10.1103 19.6644 10.1088 19.5069V1.19642C10.1131 0.878202 10.2423 0.574425 10.4685 0.350607C10.6948 0.12679 11 0.000868292 11.3182 0H18.1716C13.1701 4.21845 14.3925 13.4289 20.3694 16.1257V19.5069C20.369 19.6641 20.3996 19.8199 20.4596 19.9653C20.5196 20.1106 20.6077 20.2427 20.7189 20.3538C20.8301 20.465 20.9621 20.5531 21.1075 20.6131C21.2528 20.6731 21.4086 20.7037 21.5658 20.7033H25.4672C25.6925 20.7054 25.9127 20.7705 26.1028 20.8914C26.2929 21.0122 26.4454 21.184 26.5429 21.3871C26.6404 21.5902 26.679 21.8165 26.6544 22.0405C26.6297 22.2644 26.5428 22.477 26.4035 22.654ZM32.1646 7.29558C32.1646 8.53168 31.8503 9.74749 31.2514 10.8288C30.6525 11.9101 29.7885 12.8214 28.7406 13.4771C27.6927 14.1327 26.4954 14.5113 25.2611 14.5771C24.0267 14.6429 22.7959 14.3939 21.6842 13.8534C20.5726 13.3129 19.6166 12.4986 18.906 11.4872C18.1955 10.4757 17.7537 9.3002 17.6223 8.07111C17.4908 6.84202 17.6739 5.59969 18.1545 4.46083C18.635 3.32196 19.3972 2.32395 20.3694 1.56055C21.449 0.729618 22.739 0.21616 24.0943 0.0778496C25.4496 -0.0604604 26.8167 0.181857 28.0419 0.777583C29.2671 1.37331 30.302 2.29885 31.0303 3.45024C31.7585 4.60163 32.1513 5.93327 32.1646 7.29558Z" fill="white"/>
<path d="M26.1441 2.24661H23.6413C23.109 2.24661 22.6674 2.61643 22.5428 3.12494C22.5088 3.22895 22.4862 3.34452 22.4862 3.47165V6.37245H21.6821C21.0592 6.37245 20.5496 6.89252 20.5496 7.52815C20.5496 8.16379 21.0592 8.68385 21.6821 8.68385H22.4862V9.00745H21.6821C21.0592 9.00745 20.5496 9.52751 20.5496 10.1631C20.5496 10.7988 21.0592 11.3188 21.6821 11.3188H22.4862V11.3766C22.4862 12.0123 22.9958 12.5323 23.6187 12.5323C24.2415 12.5323 24.7512 12.0123 24.7512 11.3766V11.3188H27.0048C27.6277 11.3188 28.1373 10.7988 28.1373 10.1631C28.1373 9.52751 27.6277 9.00745 27.0048 9.00745H24.7625V8.68385H26.1441C27.8882 8.68385 29.2925 7.23923 29.2925 5.47101C29.2925 3.70279 27.8882 2.24661 26.1441 2.24661ZM26.1441 6.37245H24.7625V5.46523V4.55801H26.1441C26.6311 4.55801 27.0275 4.9625 27.0275 5.45945C27.0388 5.96796 26.6311 6.37245 26.1441 6.37245Z" fill="#215387"/>
</svg>
