<svg width="36" height="38" viewBox="0 0 36 38" fill="none" xmlns="http://www.w3.org/2000/svg">
<path fill-rule="evenodd" clip-rule="evenodd" d="M12.2044 18.5128C11.2845 21.0096 8.89267 22.7756 6.07155 22.7756C3.25043 22.7756 0.919932 21.0096 0 18.5128H1.41056L5.51959 9.25641C5.70358 8.76923 6.50085 8.76923 6.68484 9.25641L10.7939 18.5128H12.2044ZM23.7956 18.5128C24.6542 21.0096 27.046 22.7756 29.8671 22.7756C32.6882 22.7756 35.0801 21.0096 36 18.5128H34.5894L30.4804 9.25641C30.2964 8.76923 29.4991 8.76923 29.3152 9.25641L25.2061 18.5128H23.7956ZM17.9693 38H26.862V36.4776C26.862 35.6859 26.2487 35.016 25.3901 35.016H22.4463C22.3237 33.1891 21.1584 31.6667 19.4412 31.0577V9.5C20.2998 8.95192 20.7905 7.97756 20.6678 6.88141C22.937 4.38462 26.0647 6.82051 28.4566 7.73397C28.6405 8.34295 29.1925 8.76923 29.8671 8.76923C30.6644 8.76923 31.339 8.09936 31.339 7.24679C31.339 6.45513 30.6644 5.78526 29.8671 5.78526C29.4378 5.78526 29.0698 5.96795 28.7632 6.27244C25.9421 5.05449 22.937 2.92308 19.9932 5.48077C19.6865 5.11538 19.2572 4.87179 18.8279 4.75C19.3799 4.44551 19.7479 3.89744 19.7479 3.22756C19.7479 2.25321 18.0307 0.0608974 17.9693 0C17.908 0.0608974 16.2521 2.25321 16.2521 3.22756C16.2521 3.89744 16.6201 4.44551 17.1721 4.75C16.7428 4.87179 16.3135 5.11538 16.0068 5.48077C13.063 2.92308 10.0579 5.05449 7.17547 6.27244C6.93015 5.96795 6.56218 5.78526 6.13288 5.78526C5.27428 5.78526 4.59966 6.45513 4.59966 7.24679C4.59966 8.09936 5.27428 8.76923 6.13288 8.76923C6.8075 8.76923 7.35945 8.34295 7.54344 7.73397C9.93526 6.82051 13.063 4.38462 15.3322 6.88141C15.2095 7.97756 15.7002 8.95192 16.4974 9.5V31.0577C14.8416 31.6667 13.615 33.1891 13.5537 35.016H10.5486C9.75128 35.016 9.07666 35.6859 9.07666 36.4776V38H17.9693ZM26.494 18.5128L29.8671 11.1442L33.2402 18.5128H26.494ZM9.50596 18.5128L6.07155 11.1442L2.69847 18.5128H9.50596Z" fill="white"/>
</svg>
