<svg width="36" height="36" viewBox="0 0 36 36" fill="none" xmlns="http://www.w3.org/2000/svg">
<path d="M30.1904 4.73438L30.1914 4.7334L33.708 8.25488L30.6816 10.6738C31.2533 11.6744 31.7111 12.7486 32.0361 13.8789H36V22.1211H32.001C31.7034 23.1231 31.3019 24.0806 30.8086 24.9805L33.6416 27.8135L27.8135 33.6416L24.9805 30.8086C24.0806 31.3019 23.1231 31.7034 22.1211 32.001V36H13.8789V32.0361C12.9624 31.7726 12.0834 31.4211 11.25 30.9932L11.7598 27.3916L15.1562 23.9346L15.3057 23.7646C16.124 24.1478 17.0366 24.3633 18 24.3633C21.5145 24.3633 24.3633 21.5145 24.3633 18C24.3633 16.7876 24.0239 15.6547 23.4355 14.6904L27.9189 11.2939L28.1162 7.27832L28.1045 7.2666L30.1221 4.66699L30.1904 4.73438ZM22.1211 3.87793C22.9666 4.129 23.7804 4.45389 24.5547 4.8457L24.6221 9.31738L22.333 12.9395L22.165 13.1924C21.0487 12.2244 19.5937 11.6367 18 11.6367C14.4855 11.6367 11.6367 14.4855 11.6367 18C11.6367 19.7712 12.3607 21.3728 13.5283 22.5264L8.90234 25.0371L8.06738 28.8174L5.58398 31.042L5.5166 30.9746L5.51562 30.9756L2.35547 27.8164L5.11719 25.0645C4.6025 24.1402 4.18478 23.1545 3.87793 22.1211H0V13.8789H3.84277C4.14355 12.8328 4.5571 11.8345 5.07031 10.8984L2.3584 8.18652L8.18652 2.3584L10.8984 5.07031C11.8345 4.5571 12.8328 4.14257 13.8789 3.8418V0H22.1211V3.87793Z" fill="white"/>
</svg>
