<svg width="36" height="36" viewBox="0 0 36 36" fill="none" xmlns="http://www.w3.org/2000/svg">
<path fill-rule="evenodd" clip-rule="evenodd" d="M21.854 31.4177H30.8884C31.0864 31.4173 31.2761 31.3393 31.4162 31.2008C31.5562 31.0623 31.6352 30.8746 31.6357 30.6787V10.3431H26.451C26.3843 10.3432 26.3181 10.3302 26.2565 10.305C26.1948 10.2797 26.1387 10.2427 26.0915 10.196C26.0443 10.1493 26.0069 10.0938 25.9814 10.0328C25.9559 9.97177 25.9428 9.90636 25.9428 9.84031V5.79537H11.556C11.3581 5.79582 11.1684 5.87378 11.0285 6.01219C10.8885 6.1506 10.8096 6.33821 10.8091 6.53401V15.5384C11.0757 15.539 11.3377 15.6072 11.5701 15.7365C11.8024 15.8658 11.9974 16.0519 12.1364 16.277L14.2763 19.6112C14.3518 19.5697 14.4366 19.5479 14.5229 19.5478H27.9206C28.0554 19.5478 28.1846 19.6008 28.2799 19.6951C28.3752 19.7894 28.4288 19.9173 28.4288 20.0507C28.4288 20.184 28.3752 20.3119 28.2799 20.4062C28.1846 20.5005 28.0554 20.5535 27.9206 20.5535H14.8823L16.4211 22.95H27.9206C27.9886 22.948 28.0562 22.9596 28.1196 22.984C28.183 23.0083 28.2407 23.045 28.2895 23.0919C28.3383 23.1388 28.377 23.1948 28.4035 23.2568C28.43 23.3188 28.4436 23.3853 28.4436 23.4526C28.4436 23.5199 28.43 23.5865 28.4035 23.6484C28.377 23.7104 28.3383 23.7665 28.2895 23.8133C28.2407 23.8602 28.183 23.8969 28.1196 23.9213C28.0562 23.9456 27.9886 23.9572 27.9206 23.9552H17.0659L18.6052 26.3517H27.9206C27.9886 26.3498 28.0562 26.3613 28.1196 26.3857C28.183 26.4101 28.2407 26.4468 28.2895 26.4936C28.3383 26.5405 28.377 26.5966 28.4035 26.6585C28.43 26.7205 28.4436 26.7871 28.4436 26.8543C28.4436 26.9216 28.43 26.9882 28.4035 27.0502C28.377 27.1121 28.3383 27.1682 28.2895 27.2151C28.2407 27.2619 28.183 27.2986 28.1196 27.323C28.0562 27.3474 27.9886 27.3589 27.9206 27.357H19.25L21.854 31.4143V31.4177ZM11.28 16.8154L21.5068 32.7525C21.5722 32.8545 21.6109 32.971 21.6194 33.0915C21.628 33.212 21.606 33.3328 21.5556 33.4428C21.5156 33.5475 21.4447 33.638 21.3522 33.7025C21.2597 33.767 21.1498 33.8027 21.0366 33.8048H0.584077C0.470934 33.8026 0.361047 33.767 0.268557 33.7024C0.176066 33.6379 0.105203 33.5475 0.0650865 33.4428C0.0149639 33.3327 -0.00676867 33.212 0.00183604 33.0915C0.0104408 32.971 0.0491138 32.8546 0.114391 32.7525L10.3407 16.8154C10.3875 16.7328 10.4556 16.6641 10.5382 16.6162C10.6207 16.5684 10.7147 16.5431 10.8104 16.5431C10.906 16.5431 11 16.5684 11.0825 16.6162C11.1651 16.6641 11.2333 16.7328 11.28 16.8154ZM10.2209 29.2177H11.4176C11.6509 29.218 11.8746 29.3099 12.0395 29.4731C12.2045 29.6364 12.2974 29.8577 12.2977 30.0885V31.4152C12.2974 31.5293 12.2743 31.6422 12.2297 31.7474C12.1852 31.8526 12.1201 31.9481 12.0382 32.0284C11.9567 32.1097 11.8599 32.1742 11.7531 32.2182C11.6464 32.2623 11.5319 32.2851 11.4163 32.2852H10.2209C10.1054 32.2849 9.9912 32.2621 9.8847 32.218C9.7782 32.1739 9.68154 32.1095 9.60024 32.0284C9.51814 31.9478 9.45295 31.852 9.40841 31.7464C9.36388 31.6408 9.34088 31.5275 9.34075 31.413V30.0885C9.34083 29.974 9.3638 29.8607 9.40833 29.755C9.45287 29.6493 9.51809 29.5534 9.60024 29.4727C9.68155 29.3915 9.77828 29.3271 9.88486 29.283C9.99145 29.2389 10.1058 29.2161 10.2213 29.216L10.2209 29.2177ZM11.2813 30.2229V31.2799H10.3562V30.2229H11.2813ZM10.3822 20.9305H11.2394C11.507 20.9292 11.7716 20.9852 12.0152 21.0948C12.2588 21.2043 12.4755 21.3649 12.6503 21.5653C12.8252 21.7657 12.9541 22.0012 13.0281 22.2556C13.1022 22.51 13.1196 22.7773 13.0792 23.039L12.2748 28.4701C12.2568 28.5892 12.1962 28.6979 12.1039 28.7765C12.0117 28.8551 11.8939 28.8982 11.7722 28.898H9.84806C9.72183 28.8979 9.60015 28.8513 9.50676 28.7673C9.41337 28.6833 9.35495 28.5679 9.34291 28.4435L8.54107 23.0381C8.50126 22.7765 8.51915 22.5093 8.5935 22.2551C8.66785 22.0009 8.7969 21.7656 8.9718 21.5654C9.1467 21.3652 9.3633 21.2048 9.60675 21.0952C9.8502 20.9856 10.1147 20.9294 10.3822 20.9305ZM11.2394 21.9362C11.4222 21.9373 11.5998 21.9959 11.7467 22.1036C11.8935 22.2114 12.0018 22.3626 12.0559 22.5353C12.0882 22.6518 12.0948 22.7738 12.0754 22.8931L11.3341 27.894H10.2866L9.54575 22.8926C9.52446 22.7739 9.53102 22.6518 9.56491 22.5359C9.5988 22.42 9.65913 22.3134 9.74123 22.2242C9.81837 22.1305 9.91635 22.0556 10.0275 22.0055C10.1387 21.9554 10.2601 21.9314 10.3822 21.9353L11.2394 21.9362ZM32.6499 27.8179V9.33962L26.8022 4.7897H15.1764V2.9337C15.1769 2.73776 15.2559 2.55002 15.3961 2.41158C15.5362 2.27315 15.7261 2.19529 15.9241 2.19507H30.3088V6.24044C30.3089 6.37376 30.3625 6.50159 30.4578 6.59587C30.5531 6.69014 30.6823 6.74316 30.817 6.74327H36V27.0788C35.9994 27.2746 35.9206 27.4622 35.7808 27.6006C35.6409 27.7391 35.4514 27.8172 35.2535 27.8179H32.6499ZM35.3703 5.73589L31.3248 2.58878V5.73846L35.3703 5.73589ZM31.0021 9.33577H26.9587V6.19079L31.0038 9.33748L31.0021 9.33577ZM14.5242 13.7436C14.3894 13.7436 14.2601 13.6906 14.1648 13.5963C14.0695 13.502 14.016 13.3741 14.016 13.2408C14.016 13.1074 14.0695 12.9795 14.1648 12.8852C14.2601 12.7909 14.3894 12.7379 14.5242 12.7379H27.9206C28.0554 12.7379 28.1846 12.7909 28.2799 12.8852C28.3752 12.9795 28.4288 13.1074 28.4288 13.2408C28.4288 13.3741 28.3752 13.502 28.2799 13.5963C28.1846 13.6906 28.0554 13.7436 27.9206 13.7436H14.5242ZM14.5242 17.1471C14.3894 17.1471 14.2601 17.0941 14.1648 16.9998C14.0695 16.9055 14.016 16.7776 14.016 16.6442C14.016 16.5109 14.0695 16.383 14.1648 16.2887C14.2601 16.1944 14.3894 16.1414 14.5242 16.1414H27.9206C28.0554 16.1414 28.1846 16.1944 28.2799 16.2887C28.3752 16.383 28.4288 16.5109 28.4288 16.6442C28.4288 16.7776 28.3752 16.9055 28.2799 16.9998C28.1846 17.0941 28.0554 17.1471 27.9206 17.1471H14.5242Z" fill="white"/>
</svg>
