<svg width="65" height="12" viewBox="0 0 65 12" fill="none" xmlns="http://www.w3.org/2000/svg">
<path fill-rule="evenodd" clip-rule="evenodd" d="M7.07343 0.358237L8.60352 3.59142C8.61895 3.62598 8.64374 3.65588 8.67528 3.67797C8.70683 3.70007 8.74396 3.71353 8.78276 3.71696L12.4394 4.12329C12.5598 4.13606 12.6739 4.18213 12.7678 4.25595C12.8618 4.32978 12.9317 4.42823 12.9692 4.53949C13.0066 4.65074 13.01 4.77007 12.979 4.88315C12.9479 4.99623 12.8838 5.09825 12.7942 5.17697L10.0832 7.58118C10.0537 7.606 10.0318 7.63807 10.0196 7.67397C10.0075 7.70988 10.0057 7.74828 10.0143 7.78511L10.7441 11.2694C10.7689 11.3838 10.7588 11.5028 10.7152 11.6119C10.6716 11.7209 10.5963 11.8155 10.4983 11.8842C10.4004 11.9529 10.2839 11.9928 10.163 11.9991C10.0421 12.0054 9.92192 11.9778 9.81688 11.9197L6.61126 10.1726C6.57752 10.1537 6.5392 10.1437 6.50019 10.1437C6.46118 10.1437 6.42286 10.1537 6.38912 10.1726L3.18278 11.9197C3.07773 11.9776 2.95758 12.0051 2.83676 11.9987C2.71594 11.9924 2.5996 11.9525 2.5017 11.8838C2.4038 11.8151 2.3285 11.7206 2.28486 11.6116C2.24122 11.5026 2.23109 11.3838 2.25568 11.2694L2.98549 7.78511C2.99413 7.74828 2.99229 7.70988 2.98016 7.67397C2.96803 7.63807 2.94607 7.606 2.91659 7.58118L0.206224 5.1767C0.116495 5.09803 0.0522058 4.996 0.0210888 4.88289C-0.0100282 4.76978 -0.00664857 4.65039 0.0308213 4.53908C0.0682912 4.42778 0.138256 4.3293 0.232302 4.25549C0.326347 4.18167 0.440469 4.13567 0.560943 4.12301L4.2182 3.71668C4.257 3.71326 4.29413 3.69979 4.32568 3.67769C4.35722 3.6556 4.38201 3.6257 4.39743 3.59114L5.92695 0.358237C5.97658 0.251518 6.0571 0.160927 6.1588 0.0973701C6.2605 0.0338135 6.37905 0 6.50019 0C6.62133 0 6.73988 0.0338135 6.84158 0.0973701C6.94328 0.160927 7.0238 0.251518 7.07343 0.358237Z" fill="#EB8C29"/>
<path fill-rule="evenodd" clip-rule="evenodd" d="M20.0734 0.358237L21.6035 3.59142C21.6189 3.62598 21.6437 3.65588 21.6753 3.67797C21.7068 3.70007 21.744 3.71353 21.7828 3.71696L25.4394 4.12329C25.5598 4.13606 25.6739 4.18213 25.7678 4.25595C25.8618 4.32978 25.9317 4.42823 25.9692 4.53949C26.0066 4.65074 26.01 4.77007 25.979 4.88315C25.9479 4.99623 25.8838 5.09825 25.7942 5.17697L23.0832 7.58118C23.0537 7.606 23.0318 7.63807 23.0196 7.67397C23.0075 7.70988 23.0057 7.74828 23.0143 7.78511L23.7441 11.2694C23.7689 11.3838 23.7588 11.5028 23.7152 11.6119C23.6716 11.7209 23.5963 11.8155 23.4983 11.8842C23.4004 11.9529 23.2839 11.9928 23.163 11.9991C23.0421 12.0054 22.9219 11.9778 22.8169 11.9197L19.6113 10.1726C19.5775 10.1537 19.5392 10.1437 19.5002 10.1437C19.4612 10.1437 19.4229 10.1537 19.3891 10.1726L16.1828 11.9197C16.0777 11.9776 15.9576 12.0051 15.8368 11.9987C15.7159 11.9924 15.5996 11.9525 15.5017 11.8838C15.4038 11.8151 15.3285 11.7206 15.2849 11.6116C15.2412 11.5026 15.2311 11.3838 15.2557 11.2694L15.9855 7.78511C15.9941 7.74828 15.9923 7.70988 15.9802 7.67397C15.968 7.63807 15.9461 7.606 15.9166 7.58118L13.2062 5.1767C13.1165 5.09803 13.0522 4.996 13.0211 4.88289C12.99 4.76978 12.9934 4.65039 13.0308 4.53908C13.0683 4.42778 13.1383 4.3293 13.2323 4.25549C13.3263 4.18167 13.4405 4.13567 13.5609 4.12301L17.2182 3.71668C17.257 3.71326 17.2941 3.69979 17.3257 3.67769C17.3572 3.6556 17.382 3.6257 17.3974 3.59114L18.9269 0.358237C18.9766 0.251518 19.0571 0.160927 19.1588 0.0973701C19.2605 0.0338135 19.3791 0 19.5002 0C19.6213 0 19.7399 0.0338135 19.8416 0.0973701C19.9433 0.160927 20.0238 0.251518 20.0734 0.358237Z" fill="#EB8C29"/>
<path fill-rule="evenodd" clip-rule="evenodd" d="M33.0734 0.358237L34.6035 3.59142C34.6189 3.62598 34.6437 3.65588 34.6753 3.67797C34.7068 3.70007 34.744 3.71353 34.7828 3.71696L38.4394 4.12329C38.5598 4.13606 38.6739 4.18213 38.7678 4.25595C38.8618 4.32978 38.9317 4.42823 38.9692 4.53949C39.0066 4.65074 39.01 4.77007 38.979 4.88315C38.9479 4.99623 38.8838 5.09825 38.7942 5.17697L36.0832 7.58118C36.0537 7.606 36.0318 7.63807 36.0196 7.67397C36.0075 7.70988 36.0057 7.74828 36.0143 7.78511L36.7441 11.2694C36.7689 11.3838 36.7588 11.5028 36.7152 11.6119C36.6716 11.7209 36.5963 11.8155 36.4983 11.8842C36.4004 11.9529 36.2839 11.9928 36.163 11.9991C36.0421 12.0054 35.9219 11.9778 35.8169 11.9197L32.6113 10.1726C32.5775 10.1537 32.5392 10.1437 32.5002 10.1437C32.4612 10.1437 32.4229 10.1537 32.3891 10.1726L29.1828 11.9197C29.0777 11.9776 28.9576 12.0051 28.8368 11.9987C28.7159 11.9924 28.5996 11.9525 28.5017 11.8838C28.4038 11.8151 28.3285 11.7206 28.2849 11.6116C28.2412 11.5026 28.2311 11.3838 28.2557 11.2694L28.9855 7.78511C28.9941 7.74828 28.9923 7.70988 28.9802 7.67397C28.968 7.63807 28.9461 7.606 28.9166 7.58118L26.2062 5.1767C26.1165 5.09803 26.0522 4.996 26.0211 4.88289C25.99 4.76978 25.9934 4.65039 26.0308 4.53908C26.0683 4.42778 26.1383 4.3293 26.2323 4.25549C26.3263 4.18167 26.4405 4.13567 26.5609 4.12301L30.2182 3.71668C30.257 3.71326 30.2941 3.69979 30.3257 3.67769C30.3572 3.6556 30.382 3.6257 30.3974 3.59114L31.9269 0.358237C31.9766 0.251518 32.0571 0.160927 32.1588 0.0973701C32.2605 0.0338135 32.3791 0 32.5002 0C32.6213 0 32.7399 0.0338135 32.8416 0.0973701C32.9433 0.160927 33.0238 0.251518 33.0734 0.358237Z" fill="#EB8C29"/>
<path fill-rule="evenodd" clip-rule="evenodd" d="M46.0734 0.358237L47.6035 3.59142C47.6189 3.62598 47.6437 3.65588 47.6753 3.67797C47.7068 3.70007 47.744 3.71353 47.7828 3.71696L51.4394 4.12329C51.5598 4.13606 51.6739 4.18213 51.7678 4.25595C51.8618 4.32978 51.9317 4.42823 51.9692 4.53949C52.0066 4.65074 52.01 4.77007 51.979 4.88315C51.9479 4.99623 51.8838 5.09825 51.7942 5.17697L49.0832 7.58118C49.0537 7.606 49.0318 7.63807 49.0196 7.67397C49.0075 7.70988 49.0057 7.74828 49.0143 7.78511L49.7441 11.2694C49.7689 11.3838 49.7588 11.5028 49.7152 11.6119C49.6716 11.7209 49.5963 11.8155 49.4983 11.8842C49.4004 11.9529 49.2839 11.9928 49.163 11.9991C49.0421 12.0054 48.9219 11.9778 48.8169 11.9197L45.6113 10.1726C45.5775 10.1537 45.5392 10.1437 45.5002 10.1437C45.4612 10.1437 45.4229 10.1537 45.3891 10.1726L42.1828 11.9197C42.0777 11.9776 41.9576 12.0051 41.8368 11.9987C41.7159 11.9924 41.5996 11.9525 41.5017 11.8838C41.4038 11.8151 41.3285 11.7206 41.2849 11.6116C41.2412 11.5026 41.2311 11.3838 41.2557 11.2694L41.9855 7.78511C41.9941 7.74828 41.9923 7.70988 41.9802 7.67397C41.968 7.63807 41.9461 7.606 41.9166 7.58118L39.2062 5.1767C39.1165 5.09803 39.0522 4.996 39.0211 4.88289C38.99 4.76978 38.9934 4.65039 39.0308 4.53908C39.0683 4.42778 39.1383 4.3293 39.2323 4.25549C39.3263 4.18167 39.4405 4.13567 39.5609 4.12301L43.2182 3.71668C43.257 3.71326 43.2941 3.69979 43.3257 3.67769C43.3572 3.6556 43.382 3.6257 43.3974 3.59114L44.9269 0.358237C44.9766 0.251518 45.0571 0.160927 45.1588 0.0973701C45.2605 0.0338135 45.3791 0 45.5002 0C45.6213 0 45.7399 0.0338135 45.8416 0.0973701C45.9433 0.160927 46.0238 0.251518 46.0734 0.358237Z" fill="#EB8C29"/>
<path fill-rule="evenodd" clip-rule="evenodd" d="M59.0734 0.358237L60.6035 3.59142C60.6189 3.62598 60.6437 3.65588 60.6753 3.67797C60.7068 3.70007 60.744 3.71353 60.7828 3.71696L64.4394 4.12329C64.5598 4.13606 64.6739 4.18213 64.7678 4.25595C64.8618 4.32978 64.9317 4.42823 64.9692 4.53949C65.0066 4.65074 65.01 4.77007 64.979 4.88315C64.9479 4.99623 64.8838 5.09825 64.7942 5.17697L62.0832 7.58118C62.0537 7.606 62.0318 7.63807 62.0196 7.67397C62.0075 7.70988 62.0057 7.74828 62.0143 7.78511L62.7441 11.2694C62.7689 11.3838 62.7588 11.5028 62.7152 11.6119C62.6716 11.7209 62.5963 11.8155 62.4983 11.8842C62.4004 11.9529 62.2839 11.9928 62.163 11.9991C62.0421 12.0054 61.9219 11.9778 61.8169 11.9197L58.6113 10.1726C58.5775 10.1537 58.5392 10.1437 58.5002 10.1437C58.4612 10.1437 58.4229 10.1537 58.3891 10.1726L55.1828 11.9197C55.0777 11.9776 54.9576 12.0051 54.8368 11.9987C54.7159 11.9924 54.5996 11.9525 54.5017 11.8838C54.4038 11.8151 54.3285 11.7206 54.2849 11.6116C54.2412 11.5026 54.2311 11.3838 54.2557 11.2694L54.9855 7.78511C54.9941 7.74828 54.9923 7.70988 54.9802 7.67397C54.968 7.63807 54.9461 7.606 54.9166 7.58118L52.2062 5.1767C52.1165 5.09803 52.0522 4.996 52.0211 4.88289C51.99 4.76978 51.9934 4.65039 52.0308 4.53908C52.0683 4.42778 52.1383 4.3293 52.2323 4.25549C52.3263 4.18167 52.4405 4.13567 52.5609 4.12301L56.2182 3.71668C56.257 3.71326 56.2941 3.69979 56.3257 3.67769C56.3572 3.6556 56.382 3.6257 56.3974 3.59114L57.9269 0.358237C57.9766 0.251518 58.0571 0.160927 58.1588 0.0973701C58.2605 0.0338135 58.3791 0 58.5002 0C58.6213 0 58.7399 0.0338135 58.8416 0.0973701C58.9433 0.160927 59.0238 0.251518 59.0734 0.358237Z" fill="#EB8C29"/>
</svg>
