<svg width="175" height="34" viewBox="0 0 175 34" fill="none" xmlns="http://www.w3.org/2000/svg">
<g clip-path="url(#clip0_293_111)">
<path fill-rule="evenodd" clip-rule="evenodd" d="M143.182 5.62987H140.988C139.526 5.62987 138.444 6.78684 138.444 8.26954V10.7901H141.749C142.363 10.7901 142.83 11.2943 142.83 11.8868C142.83 12.5101 142.363 12.9841 141.749 12.9841H138.444V23.7159C138.444 24.3391 137.976 24.8131 137.363 24.8131C136.777 24.8131 136.281 24.3387 136.281 23.7159V8.26766C136.281 5.5395 138.327 3.43359 140.99 3.43359H143.184C143.768 3.43359 144.266 3.93772 144.266 4.53079C144.266 5.15399 143.768 5.62799 143.184 5.62799L143.182 5.62987ZM155.2 24.818C154.615 24.818 154.118 24.3436 154.118 23.7208V4.53518C154.118 3.94211 154.615 3.43799 155.2 3.43799C155.814 3.43799 156.281 3.94211 156.281 4.53518V23.7208C156.281 24.344 155.814 24.818 155.2 24.818ZM162.777 18.0302H173.89L173.892 18.0355C174.477 18.0355 175.032 17.5606 174.974 16.7603C174.77 13.0211 171.728 10.3824 168.014 10.3824C163.948 10.3824 160.674 13.7018 160.674 17.8241C160.674 21.9445 163.95 25.2658 168.014 25.2658C169.739 25.2658 171.319 24.6431 172.576 23.6349C173.043 23.2494 173.102 22.597 172.751 22.0933C172.371 21.5891 171.64 21.5297 171.201 21.8857C170.295 22.6271 169.155 23.0713 167.955 23.0713C165.176 23.0713 162.894 20.8171 162.777 18.0302ZM163.069 16.0715C163.769 14.0249 165.699 12.5422 167.951 12.5422H167.958C170.123 12.5422 172.17 13.7283 172.433 16.0715H163.069ZM146.137 6.43031C146.137 7.26062 146.809 7.94313 147.628 7.94313C148.448 7.94313 149.149 7.26062 149.149 6.43031C149.149 5.57035 148.447 4.8883 147.628 4.8883C146.809 4.8883 146.137 5.56988 146.137 6.43031ZM117.211 17.8163C117.211 21.9368 120.488 25.2581 124.552 25.2581C128.617 25.2581 131.893 21.9377 131.893 17.8163C131.893 13.6954 128.617 10.3746 124.552 10.3746C120.487 10.3746 117.211 13.6939 117.211 17.8163ZM124.582 12.568C121.715 12.568 119.403 14.9102 119.403 17.8162C119.403 20.7223 121.713 23.0645 124.582 23.0645C127.447 23.0645 129.759 20.7223 129.759 17.8162C129.759 14.9102 127.449 12.568 124.582 12.568ZM109.757 18.3485C109.757 15.0584 111.655 12.9826 114.726 12.9826V12.9784C115.31 12.9784 115.809 12.5043 115.809 11.8812C115.809 11.2886 115.31 10.7845 114.726 10.7845C112.447 10.7845 110.75 11.9697 109.757 13.7197V11.8812C109.757 11.2886 109.289 10.7845 108.675 10.7845C108.09 10.7845 107.593 11.2886 107.593 11.8812V23.7145C107.593 24.3372 108.09 24.8117 108.675 24.8117C109.288 24.8117 109.757 24.3377 109.757 23.7145V18.3485ZM96.0958 25.2585C93.8444 25.2585 91.9726 24.191 90.7737 22.5303V26.182C90.7737 26.8052 90.3054 27.2797 89.6915 27.2797C89.1069 27.2797 88.61 26.8047 88.61 26.182V11.8822C88.61 11.2896 89.1069 10.7855 89.6915 10.7855C90.3059 10.7855 90.7737 11.2896 90.7737 11.8822V13.1277C91.9726 11.467 93.8444 10.3699 96.0958 10.3699C100.073 10.3699 103.2 13.6906 103.2 17.8116C103.2 21.933 100.071 25.2533 96.0958 25.2533V25.2585ZM90.7748 17.8167C90.7748 14.8203 93.3176 12.5073 96.1248 12.5073C98.9622 12.5073 101.039 14.9107 101.039 17.8167C101.039 20.6909 98.9618 23.0933 96.1248 23.0933C93.26 23.0933 90.7748 20.7822 90.7748 17.8167ZM84.5985 12.9819H82.7851C81.5565 12.9819 80.6791 13.9008 80.6791 15.1759V20.603C80.6791 23.0934 78.9539 24.8134 76.4974 24.8134H74.5968C73.9824 24.8134 73.5153 24.3389 73.5153 23.7162C73.5153 23.094 73.983 22.6194 74.5968 22.6194H76.4101C77.6676 22.6194 78.5158 21.6997 78.5158 20.4251V14.9979C78.5158 12.5075 80.2415 10.7875 82.6975 10.7875H84.599C85.2124 10.7875 85.6806 11.2917 85.6806 11.8843C85.6806 12.5075 85.2119 12.9819 84.5985 12.9819ZM68.4267 23.7179C68.4267 24.3406 68.9237 24.8151 69.5088 24.8151L69.5046 24.8273C70.118 24.8273 70.5863 24.3533 70.5863 23.7302V11.8968C70.5863 11.3042 70.118 10.8001 69.5046 10.8001C68.9195 10.8001 68.4226 11.3042 68.4226 11.8968V18.1524C68.4226 20.6414 66.3772 23.1323 63.3649 23.1323C60.8207 23.1323 58.7443 21.2025 58.7443 18.3265V11.8875C58.7443 11.2651 58.2766 10.7906 57.6622 10.7906C57.0487 10.7906 56.5806 11.2651 56.5806 11.8875V18.5289C56.5806 22.2357 59.2728 25.2599 62.9282 25.2599C65.1806 25.2599 67.1981 24.2225 68.4267 22.5619V23.7179ZM52.7816 12.9818C49.7118 12.9818 47.8121 15.0575 47.8121 18.3478V23.7137C47.8121 24.3369 47.3444 24.8109 46.7305 24.8109C46.1454 24.8109 45.6484 24.3364 45.6484 23.7137V11.8803C45.6484 11.2878 46.1454 10.7836 46.7305 10.7836C47.3448 10.7836 47.8121 11.2878 47.8121 11.8803V13.7189C48.8061 11.9688 50.5029 10.7836 52.7816 10.7836C53.3668 10.7836 53.8638 11.2878 53.8638 11.8803C53.8638 12.5036 53.3668 12.9776 52.7816 12.9776V12.9818ZM148.707 11.8846C148.707 11.292 148.239 10.7879 147.625 10.7879C147.041 10.7879 146.544 11.292 146.544 11.8846V23.7179C146.544 24.3406 147.041 24.8151 147.625 24.8151C148.239 24.8151 148.707 24.3411 148.707 23.7179V11.8846Z" fill="#333333"/>
<path fill-rule="evenodd" clip-rule="evenodd" d="M18.3944 0.000366101C9.70125 -0.0551082 2.27474 6.19977 0.954549 14.7046C-0.365774 23.2102 4.82284 31.3809 13.1345 33.9053C13.3498 33.9707 13.583 33.9384 13.7721 33.817C13.9612 33.6956 14.087 33.4974 14.116 33.2753L15.0599 26.036L16.4082 15.6091C16.436 15.3938 16.3702 15.1771 16.2274 15.0131L15.8038 14.5269C15.9674 14.5027 16.1199 14.4261 16.2372 14.307C16.381 14.161 16.4598 13.9636 16.4558 13.7592L16.3418 7.97894V7.61733C16.3418 7.23658 16.0609 6.92113 15.6943 6.86501L18.1751 5.08076L20.6501 6.86081C20.2862 6.91936 20.0083 7.23349 20.0083 7.61221V7.70589C19.9944 7.7874 19.9942 7.86849 20.0061 7.94664L19.8996 13.7756C19.8958 13.9798 19.9748 14.177 20.1185 14.3228C20.2358 14.4416 20.3881 14.5181 20.5516 14.5423L20.128 15.0285C19.9852 15.1925 19.9194 15.4092 19.9473 15.6244L21.318 26.2352C21.3196 26.2525 21.3218 26.2698 21.3247 26.287L22.2393 33.3363C22.268 33.5568 22.392 33.7539 22.579 33.8757C22.7659 33.9974 22.9969 34.0318 23.2115 33.9696C31.5553 31.5515 36.8501 23.4478 35.641 14.926C34.432 6.40504 27.0877 0.0558405 18.3944 0.000366101ZM22.9122 26.6361L23.6385 32.2347C30.7619 29.7381 35.1867 22.6097 34.1266 15.1389C33.0247 7.37308 26.3275 1.5734 18.3846 1.52272C10.4418 1.47204 3.66924 7.18582 2.46602 14.937C1.30913 22.3897 5.63542 29.5704 12.7191 32.161L13.4742 26.3699C9.84967 24.437 7.67808 20.5717 7.9708 16.4712C8.23474 12.774 10.455 9.54481 13.7205 7.9117C13.6823 7.82115 13.6612 7.7217 13.6612 7.61733V6.83812C13.6612 6.59376 13.7791 6.36425 13.978 6.22113L17.7273 3.52467C17.9946 3.3324 18.3556 3.3324 18.6229 3.52467L22.3721 6.22113C22.5711 6.36425 22.689 6.59376 22.689 6.83812V7.61221C22.689 7.63358 22.6881 7.65476 22.6864 7.6757C26.2151 9.20715 28.6719 12.5655 28.9523 16.469C29.2627 20.7895 26.8383 24.8222 22.9122 26.6361ZM21.5193 8.85156L21.4429 13.0283H22.2198C22.5194 13.0283 22.7912 13.2022 22.9156 13.4734C23.0399 13.7446 22.9938 14.063 22.7975 14.2882L21.5079 15.7685L22.7054 25.0388C25.8034 23.3993 27.6797 20.0972 27.4268 16.5775C27.1733 13.0496 24.8333 10.0364 21.5193 8.85156ZM14.8336 9.07248C11.8088 10.3929 9.73265 13.2692 9.49636 16.5791C9.26087 19.878 10.8962 23.0038 13.6863 24.7341L14.8476 15.7529L13.5578 14.2728C13.3617 14.0476 13.3155 13.7292 13.4399 13.458C13.5642 13.1869 13.8361 13.0129 14.1355 13.0129H14.9113L14.8336 9.07248Z" fill="url(#paint0_linear_293_111)"/>
</g>
<defs>
<linearGradient id="paint0_linear_293_111" x1="18.2813" y1="4.01069e-10" x2="18.2813" y2="34.5743" gradientUnits="userSpaceOnUse">
<stop stop-color="#EA18B0"/>
<stop offset="1" stop-color="#346DF1"/>
</linearGradient>
<clipPath id="clip0_293_111">
<rect width="174.25" height="34" fill="white" transform="translate(0.75)"/>
</clipPath>
</defs>
</svg>
