<svg width="80" height="17" viewBox="0 0 80 17" fill="none" xmlns="http://www.w3.org/2000/svg">
<path fill-rule="evenodd" clip-rule="evenodd" d="M7.98483 12.0148L4.27783 14.2798C4.18539 14.3361 4.0783 14.3637 3.97015 14.359C3.862 14.3544 3.75768 14.3177 3.67044 14.2536C3.5832 14.1895 3.51698 14.1009 3.48019 13.9991C3.4434 13.8973 3.43771 13.7869 3.46383 13.6818L4.53883 9.3998L1.41983 6.9738C1.33275 6.9064 1.26808 6.81425 1.23431 6.70944C1.20054 6.60462 1.19926 6.49205 1.23062 6.3865C1.26199 6.28094 1.32454 6.18733 1.41006 6.11797C1.49558 6.0486 1.60008 6.00671 1.70983 5.9978L5.78983 5.6618L7.48983 1.6958C7.53198 1.59754 7.60205 1.51382 7.69135 1.45502C7.78065 1.39622 7.88524 1.36493 7.99216 1.36504C8.09908 1.36514 8.20362 1.39664 8.2928 1.45562C8.38198 1.51459 8.45188 1.59846 8.49383 1.6968L10.1808 5.6618L14.2878 5.9988C14.7838 6.0388 14.9718 6.6688 14.5778 6.9748L11.4468 9.3998L12.5198 13.6848C12.546 13.7899 12.5403 13.9003 12.5035 14.0021C12.4667 14.1039 12.4005 14.1925 12.3132 14.2566C12.226 14.3207 12.1217 14.3574 12.0135 14.362C11.9054 14.3667 11.7983 14.3391 11.7058 14.2828L7.98483 12.0148Z" fill="#FFCC00"/>
<path fill-rule="evenodd" clip-rule="evenodd" d="M23.9848 12.0148L20.2778 14.2798C20.1854 14.3361 20.0783 14.3637 19.9701 14.359C19.862 14.3544 19.7577 14.3177 19.6704 14.2536C19.5832 14.1895 19.517 14.1009 19.4802 13.9991C19.4434 13.8973 19.4377 13.7869 19.4638 13.6818L20.5388 9.3998L17.4198 6.9738C17.3327 6.9064 17.2681 6.81425 17.2343 6.70944C17.2005 6.60462 17.1993 6.49205 17.2306 6.3865C17.262 6.28094 17.3245 6.18733 17.4101 6.11797C17.4956 6.0486 17.6001 6.00671 17.7098 5.9978L21.7898 5.6618L23.4898 1.6958C23.532 1.59754 23.602 1.51382 23.6913 1.45502C23.7806 1.39622 23.8852 1.36493 23.9922 1.36504C24.0991 1.36514 24.2036 1.39664 24.2928 1.45562C24.382 1.51459 24.4519 1.59846 24.4938 1.6968L26.1808 5.6618L30.2878 5.9988C30.7838 6.0388 30.9718 6.6688 30.5778 6.9748L27.4468 9.3998L28.5198 13.6848C28.546 13.7899 28.5403 13.9003 28.5035 14.0021C28.4667 14.1039 28.4005 14.1925 28.3132 14.2566C28.226 14.3207 28.1217 14.3574 28.0135 14.362C27.9054 14.3667 27.7983 14.3391 27.7058 14.2828L23.9848 12.0148Z" fill="#FFCC00"/>
<path fill-rule="evenodd" clip-rule="evenodd" d="M39.9848 12.0148L36.2778 14.2798C36.1854 14.3361 36.0783 14.3637 35.9701 14.359C35.862 14.3544 35.7577 14.3177 35.6704 14.2536C35.5832 14.1895 35.517 14.1009 35.4802 13.9991C35.4434 13.8973 35.4377 13.7869 35.4638 13.6818L36.5388 9.3998L33.4198 6.9738C33.3327 6.9064 33.2681 6.81425 33.2343 6.70944C33.2005 6.60462 33.1993 6.49205 33.2306 6.3865C33.262 6.28094 33.3245 6.18733 33.4101 6.11797C33.4956 6.0486 33.6001 6.00671 33.7098 5.9978L37.7898 5.6618L39.4898 1.6958C39.532 1.59754 39.602 1.51382 39.6913 1.45502C39.7806 1.39622 39.8852 1.36493 39.9922 1.36504C40.0991 1.36514 40.2036 1.39664 40.2928 1.45562C40.382 1.51459 40.4519 1.59846 40.4938 1.6968L42.1808 5.6618L46.2878 5.9988C46.7838 6.0388 46.9718 6.6688 46.5778 6.9748L43.4468 9.3998L44.5198 13.6848C44.546 13.7899 44.5403 13.9003 44.5035 14.0021C44.4667 14.1039 44.4005 14.1925 44.3132 14.2566C44.226 14.3207 44.1217 14.3574 44.0135 14.362C43.9054 14.3667 43.7983 14.3391 43.7058 14.2828L39.9848 12.0148Z" fill="#FFCC00"/>
<path fill-rule="evenodd" clip-rule="evenodd" d="M55.9848 12.0148L52.2778 14.2798C52.1854 14.3361 52.0783 14.3637 51.9701 14.359C51.862 14.3544 51.7577 14.3177 51.6704 14.2536C51.5832 14.1895 51.517 14.1009 51.4802 13.9991C51.4434 13.8973 51.4377 13.7869 51.4638 13.6818L52.5388 9.3998L49.4198 6.9738C49.3327 6.9064 49.2681 6.81425 49.2343 6.70944C49.2005 6.60462 49.1993 6.49205 49.2306 6.3865C49.262 6.28094 49.3245 6.18733 49.4101 6.11797C49.4956 6.0486 49.6001 6.00671 49.7098 5.9978L53.7898 5.6618L55.4898 1.6958C55.532 1.59754 55.602 1.51382 55.6913 1.45502C55.7806 1.39622 55.8852 1.36493 55.9922 1.36504C56.0991 1.36514 56.2036 1.39664 56.2928 1.45562C56.382 1.51459 56.4519 1.59846 56.4938 1.6968L58.1808 5.6618L62.2878 5.9988C62.7838 6.0388 62.9718 6.6688 62.5778 6.9748L59.4468 9.3998L60.5198 13.6848C60.546 13.7899 60.5403 13.9003 60.5035 14.0021C60.4667 14.1039 60.4005 14.1925 60.3132 14.2566C60.226 14.3207 60.1217 14.3574 60.0135 14.362C59.9054 14.3667 59.7983 14.3391 59.7058 14.2828L55.9848 12.0148Z" fill="#FFCC00"/>
<path fill-rule="evenodd" clip-rule="evenodd" d="M71.9848 12.0148L68.2778 14.2798C68.1854 14.3361 68.0783 14.3637 67.9701 14.359C67.862 14.3544 67.7577 14.3177 67.6704 14.2536C67.5832 14.1895 67.517 14.1009 67.4802 13.9991C67.4434 13.8973 67.4377 13.7869 67.4638 13.6818L68.5388 9.3998L65.4198 6.9738C65.3327 6.9064 65.2681 6.81425 65.2343 6.70944C65.2005 6.60462 65.1993 6.49205 65.2306 6.3865C65.262 6.28094 65.3245 6.18733 65.4101 6.11797C65.4956 6.0486 65.6001 6.00671 65.7098 5.9978L69.7898 5.6618L71.4898 1.6958C71.532 1.59754 71.602 1.51382 71.6913 1.45502C71.7806 1.39622 71.8852 1.36493 71.9922 1.36504C72.0991 1.36514 72.2036 1.39664 72.2928 1.45562C72.382 1.51459 72.4519 1.59846 72.4938 1.6968L74.1808 5.6618L78.2878 5.9988C78.7838 6.0388 78.9718 6.6688 78.5778 6.9748L75.4468 9.3998L76.5198 13.6848C76.546 13.7899 76.5403 13.9003 76.5035 14.0021C76.4667 14.1039 76.4005 14.1925 76.3132 14.2566C76.226 14.3207 76.1217 14.3574 76.0135 14.362C75.9054 14.3667 75.7983 14.3391 75.7058 14.2828L71.9848 12.0148Z" fill="#FFCC00"/>
</svg>
