<svg width="268" height="268" viewBox="0 0 268 268" fill="none" xmlns="http://www.w3.org/2000/svg">
<path d="M111.66 145.167C116.456 151.578 122.574 156.883 129.6 160.721C136.626 164.56 144.395 166.843 152.381 167.414C160.367 167.986 168.382 166.834 175.883 164.036C183.385 161.238 190.197 156.859 195.857 151.197L229.357 117.697C239.527 107.166 245.155 93.0628 245.028 78.4235C244.901 63.7842 239.029 49.7805 228.677 39.4285C218.325 29.0766 204.321 23.2046 189.682 23.0774C175.042 22.9502 160.939 28.5779 150.408 38.7484L131.202 57.8434M156.327 122.833C151.531 116.422 145.413 111.118 138.387 107.279C131.361 103.44 123.592 101.158 115.606 100.586C107.62 100.014 99.6047 101.166 92.1034 103.964C84.6021 106.762 77.7903 111.141 72.1301 116.803L38.6301 150.303C28.4596 160.834 22.8319 174.937 22.9591 189.577C23.0864 204.216 28.9583 218.22 39.3102 228.572C49.6622 238.924 63.6659 244.795 78.3052 244.923C92.9445 245.05 107.048 239.422 117.578 229.252L136.673 210.157" stroke="#215387" stroke-opacity="0.3" stroke-width="35.4982" stroke-linecap="round" stroke-linejoin="round"/>
</svg>
