<svg width="268" height="268" viewBox="0 0 268 268" fill="none" xmlns="http://www.w3.org/2000/svg">
<path d="M90.419 20.5902C66.6896 20.5902 47.3711 39.8976 47.3711 63.6381C47.3711 87.3787 66.6784 106.675 90.419 106.675C114.16 106.675 133.456 87.3675 133.456 63.6381C133.456 39.9087 114.148 20.5902 90.419 20.5902Z" fill="#215387" fill-opacity="0.3"/>
<path d="M144.375 134.391C128.987 122.856 110.294 116.424 90.4174 116.424C40.5577 116.435 0 157.004 0 206.852C0 213.016 5.00271 218.019 11.1668 218.019H72.0815C78.8597 178.656 107.112 146.574 144.375 134.391Z" fill="#215387" fill-opacity="0.3"/>
<path d="M177.57 145.814C127.71 145.814 87.1523 186.383 87.1523 236.243C87.1523 242.407 92.1551 247.41 98.3191 247.41H256.831C263.007 247.41 267.998 242.407 267.998 236.243C267.998 186.383 227.429 145.814 177.57 145.814Z" fill="#215387" fill-opacity="0.3"/>
<path d="M177.589 49.9813C153.86 49.9813 134.553 69.2887 134.553 93.0292C134.553 116.77 153.86 136.066 177.589 136.066C201.33 136.066 220.637 116.759 220.637 93.0292C220.637 69.2998 201.33 49.9813 177.589 49.9813Z" fill="#215387" fill-opacity="0.3"/>
</svg>
