<svg width="268" height="268" viewBox="0 0 268 268" fill="none" xmlns="http://www.w3.org/2000/svg">
<path d="M201.816 141.715C207.065 131.56 210.03 120.032 210.03 107.81C210.03 66.9749 176.934 33.8812 136.101 33.8812C95.266 33.8812 62.1723 66.9777 62.1723 107.81C62.1723 120.032 65.137 131.56 70.3866 141.716V177.264C69.4569 175.371 67.8277 173.897 65.8252 173.168L44.5073 165.403C31.7191 160.745 25.128 146.603 29.7857 133.815C30.0298 133.144 30.3029 132.485 30.6042 131.839L40.188 111.274C41.2131 109.075 41.2131 106.534 40.188 104.335L30.6042 83.7701C24.8552 71.434 30.195 56.7732 42.5311 51.0241C43.1776 50.7228 43.8371 50.4497 44.5073 50.2057L65.8252 42.4412C68.1055 41.6106 69.9018 39.8142 70.7323 37.534L78.4966 16.216C83.1544 3.42791 97.2971 -3.16298 110.085 1.49476C110.755 1.73886 111.415 2.01194 112.061 2.31323L132.626 11.8969C134.825 12.922 137.366 12.922 139.565 11.8969L160.13 2.31323C172.466 -3.43581 187.127 1.90394 192.876 14.24C193.177 14.8865 193.45 15.5458 193.694 16.216L201.459 37.534C202.289 39.8142 204.086 41.6106 206.366 42.4412L227.684 50.2057C240.472 54.8634 247.063 69.006 242.405 81.7941C242.161 82.4643 241.888 83.1236 241.587 83.7701L232.003 104.335C230.978 106.534 230.978 109.075 232.003 111.274L241.587 131.839C247.336 144.175 241.996 158.836 229.66 164.585C229.013 164.886 228.354 165.159 227.684 165.403L206.366 173.168C204.372 173.894 202.747 175.359 201.816 177.241V141.715ZM78.6009 107.81C78.6009 76.0506 104.34 50.3098 136.101 50.3098C167.861 50.3098 193.601 76.0485 193.601 107.81C193.601 139.57 167.863 165.31 136.101 165.31C104.342 165.31 78.6009 139.572 78.6009 107.81ZM86.8152 162.918C99.8941 174.623 117.166 181.739 136.101 181.739C155.037 181.739 172.309 174.623 185.387 162.918V259.775C185.387 265.881 178.961 269.853 173.499 267.122L136.101 248.423L98.703 267.122C93.2413 269.853 86.8152 265.881 86.8152 259.775V162.918Z" fill="#215387" fill-opacity="0.3"/>
</svg>
