<svg width="20" height="20" viewBox="0 0 20 20" fill="none" xmlns="http://www.w3.org/2000/svg">
<path d="M0 9.6C0 5.07333 0 2.81333 1.4 1.4C2.82 0 5.08 0 9.6 0H10.4C14.9267 0 17.1867 0 18.6 1.4C20 2.82 20 5.08 20 9.6V10.4C20 14.9267 20 17.1867 18.6 18.6C17.18 20 14.92 20 10.4 20H9.6C5.07333 20 2.81333 20 1.4 18.6C0 17.18 0 14.92 0 10.4V9.6Z" fill="#215387"/>
<path d="M10.989 14C7.23077 14 5.08791 11.3771 5 7.0056H6.89011C6.95055 10.2114 8.33516 11.5677 9.43407 11.8479V7.0056H11.2088V9.76862C12.2912 9.65092 13.4341 8.38991 13.8187 7H15.5879C15.4437 7.71948 15.1555 8.40089 14.7414 9.00166C14.3273 9.60242 13.7962 10.1096 13.1813 10.4916C13.8675 10.84 14.4736 11.3328 14.9594 11.9375C15.4453 12.5423 15.7999 13.2452 16 14H14.0495C13.6319 12.6717 12.5879 11.6405 11.2088 11.5004V14H10.9945H10.989Z" fill="white"/>
</svg>
