<svg width="20" height="20" viewBox="0 0 20 20" fill="none" xmlns="http://www.w3.org/2000/svg">
<path d="M10.4004 0C14.9268 1.15503e-09 17.1863 0.000432842 18.5996 1.40039C19.9996 2.82035 20 5.07987 20 9.59961V10.4004C20 14.9268 19.9996 17.1863 18.5996 18.5996C17.1796 19.9996 14.9201 20 10.4004 20H9.59961C5.0732 20 2.81368 19.9996 1.40039 18.5996C0.00043381 17.1796 1.15844e-09 14.9201 0 10.4004V9.59961C1.15856e-09 5.0732 0.000432764 2.81368 1.40039 1.40039C2.82035 0.000433732 5.07987 1.16199e-09 9.59961 0H10.4004ZM13.8184 7C13.4337 8.38979 12.2913 9.65073 11.209 9.76855V7.00586H9.43359V11.8477C8.3348 11.5672 6.95015 10.211 6.88965 7.00586H5C5.08799 11.3772 7.23109 14 10.9893 14H11.209V11.5C12.588 11.6402 13.6322 12.6718 14.0498 14H16C15.7999 13.2452 15.4448 12.5422 14.959 11.9375C14.4732 11.3329 13.8677 10.8395 13.1816 10.4912C13.7963 10.1093 14.3273 9.60246 14.7412 9.00195C15.1553 8.40119 15.4436 7.71948 15.5879 7H13.8184Z" fill="white"/>
</svg>
