<svg width="51" height="30" viewBox="0 0 51 30" fill="none" xmlns="http://www.w3.org/2000/svg">
<g clip-path="url(#clip0_267_271)">
<mask id="mask0_267_271" style="mask-type:luminance" maskUnits="userSpaceOnUse" x="1" y="1" width="50" height="29">
<path d="M1.34375 1.36481H50.3438V29.3648H1.34375V1.36481Z" fill="white"/>
</mask>
<g mask="url(#mask0_267_271)">
<path d="M35.632 26.9755C37.1814 25.3165 41.4817 22.6355 46.16 26.7188C43.6494 29.506 39.3374 30.4487 35.632 26.9755Z" fill="url(#paint0_linear_267_271)"/>
<path d="M40.7554 22.59C42.02 18.5568 46.192 17.2058 49.552 19.216C48.6619 22.7137 44.4969 24.8825 40.7554 22.59Z" fill="url(#paint1_linear_267_271)"/>
<path d="M43.9191 17.4124C43.3824 12.6827 46.4251 10.1032 50.1351 10.3354C50.9926 14.4992 47.8694 17.5921 43.9191 17.4124Z" fill="url(#paint2_linear_267_271)"/>
<path d="M44.1794 11.2791C41.51 7.57146 42.0292 4.3818 45.738 1.71246C48.4074 5.42013 47.8882 8.6098 44.1794 11.2791Z" fill="url(#paint3_linear_267_271)"/>
<path d="M16.0549 26.9755C14.5055 25.3165 10.2052 22.6355 5.52686 26.7188C8.03752 29.506 12.3495 30.4487 16.0549 26.9755Z" fill="url(#paint4_linear_267_271)"/>
<path d="M10.9319 22.59C9.66842 18.5568 5.49525 17.2058 2.13525 19.216C3.02542 22.7137 7.19159 24.8825 10.9319 22.59Z" fill="url(#paint5_linear_267_271)"/>
<path d="M7.76745 17.4123C8.30411 12.6827 5.26145 10.1032 1.55145 10.3365C0.693947 14.5003 3.81711 17.592 7.76745 17.4123Z" fill="url(#paint6_linear_267_271)"/>
<path d="M7.51195 11.2791C10.1813 7.57146 9.66212 4.3818 5.95328 1.71246C3.28395 5.42013 3.80312 8.6098 7.51195 11.2791Z" fill="url(#paint7_linear_267_271)"/>
<path d="M25.8425 2.53159C23.7666 2.53268 21.7375 3.14897 20.0116 4.30262C18.2858 5.45627 16.9405 7.09552 16.1458 9.01331C15.3511 10.9311 15.1425 13.0414 15.5465 15.0777C15.9505 17.1139 16.9488 18.9848 18.4155 20.4539C20.3172 22.3556 24.7925 25.1066 25.0573 27.9964C25.0958 28.4281 25.4108 28.7816 25.8425 28.7816C26.2742 28.7816 26.5892 28.4281 26.6277 27.9964C26.8925 25.1066 31.3643 22.3603 33.2648 20.4598C34.7332 18.9912 35.7333 17.1203 36.1385 15.0834C36.5438 13.0466 36.3361 10.9354 35.5417 9.01658C34.7473 7.09778 33.4019 5.45757 31.6755 4.30328C29.9491 3.149 27.9192 2.53245 25.8425 2.53159Z" fill="url(#paint8_linear_267_271)"/>
<path d="M25.8431 16.6237C25.3714 16.6237 24.9043 16.5308 24.4685 16.3502C24.0327 16.1697 23.6367 15.9051 23.3031 15.5715C22.9695 15.238 22.7049 14.842 22.5244 14.4062C22.3439 13.9703 22.251 13.5032 22.251 13.0315C22.251 12.5598 22.3439 12.0927 22.5244 11.6568C22.7049 11.221 22.9695 10.825 23.3031 10.4915C23.6367 10.1579 24.0327 9.89329 24.4685 9.71277C24.9043 9.53225 25.3714 9.43933 25.8431 9.43933C26.7958 9.43933 27.7095 9.81779 28.3832 10.4915C29.0568 11.1651 29.4353 12.0788 29.4353 13.0315C29.4353 13.9842 29.0568 14.8979 28.3832 15.5715C27.7095 16.2452 26.7958 16.6237 25.8431 16.6237Z" fill="white"/>
</g>
</g>
<defs>
<linearGradient id="paint0_linear_267_271" x1="46.1274" y1="27.0852" x2="35.6215" y2="27.4842" gradientUnits="userSpaceOnUse">
<stop stop-color="#FFCC00"/>
<stop offset="1" stop-color="#FE9B21"/>
</linearGradient>
<linearGradient id="paint1_linear_267_271" x1="49.5427" y1="19.2265" x2="40.9549" y2="23.1442" gradientUnits="userSpaceOnUse">
<stop stop-color="#FFCC00"/>
<stop offset="1" stop-color="#FE9B21"/>
</linearGradient>
<linearGradient id="paint2_linear_267_271" x1="50.0056" y1="10.2421" x2="44.4767" y2="17.8907" gradientUnits="userSpaceOnUse">
<stop stop-color="#FFCC00"/>
<stop offset="1" stop-color="#FE9B21"/>
</linearGradient>
<linearGradient id="paint3_linear_267_271" x1="45.6552" y1="1.7113" x2="44.8689" y2="11.3923" gradientUnits="userSpaceOnUse">
<stop stop-color="#FFCC00"/>
<stop offset="1" stop-color="#FE9B21"/>
</linearGradient>
<linearGradient id="paint4_linear_267_271" x1="5.55952" y1="27.0852" x2="16.0654" y2="27.4842" gradientUnits="userSpaceOnUse">
<stop stop-color="#FFCC00"/>
<stop offset="1" stop-color="#FE9B21"/>
</linearGradient>
<linearGradient id="paint5_linear_267_271" x1="2.14575" y1="19.2265" x2="10.7336" y2="23.1442" gradientUnits="userSpaceOnUse">
<stop stop-color="#FFCC00"/>
<stop offset="1" stop-color="#FE9B21"/>
</linearGradient>
<linearGradient id="paint6_linear_267_271" x1="1.68095" y1="10.242" x2="7.20978" y2="17.8907" gradientUnits="userSpaceOnUse">
<stop stop-color="#FFCC00"/>
<stop offset="1" stop-color="#FE9B21"/>
</linearGradient>
<linearGradient id="paint7_linear_267_271" x1="6.03612" y1="1.7113" x2="6.82245" y2="11.3923" gradientUnits="userSpaceOnUse">
<stop stop-color="#FFCC00"/>
<stop offset="1" stop-color="#FE9B21"/>
</linearGradient>
<linearGradient id="paint8_linear_267_271" x1="25.8425" y1="2.53159" x2="25.8425" y2="28.7816" gradientUnits="userSpaceOnUse">
<stop stop-color="#FF6122"/>
<stop offset="1" stop-color="#F22411"/>
</linearGradient>
<clipPath id="clip0_267_271">
<rect width="50.3125" height="28.75" fill="white" transform="translate(0.6875 0.989807)"/>
</clipPath>
</defs>
</svg>
