<svg width="61" height="46" viewBox="0 0 61 46" fill="none" xmlns="http://www.w3.org/2000/svg">
<path d="M10.9547 0.143126C10.992 0.0404264 11.104 -0.0015736 11.2067 0.0078264C18.5894 0.0078264 25.9767 0.0078264 33.3594 0.0078264C33.5274 0.0078264 33.6954 -0.00617371 33.8587 0.0405263C33.8167 0.115226 33.7607 0.180526 33.6954 0.236526C28.7627 4.43183 23.8301 8.63183 18.9021 12.8318C18.8741 12.8925 18.8928 12.9671 18.8928 13.0325C19.7935 13.9238 20.6521 14.8665 21.6555 15.6458C22.8688 16.5651 24.2922 17.2558 25.8088 17.4565C26.3268 17.4705 26.8541 17.5032 27.3721 17.4332C28.9214 17.2372 30.3728 16.5185 31.5534 15.5059C32.6081 14.6519 33.6301 13.7652 34.6661 12.8879C34.8481 12.8039 34.9741 13.0046 35.1001 13.1026C39.8694 17.1626 44.6388 21.2273 49.4128 25.2873C49.7861 25.6093 50.1968 25.9126 50.4721 26.3326C50.7101 26.6966 50.8688 27.1259 50.8734 27.5646C50.9247 28.4186 50.4487 29.2586 49.7441 29.7253C48.7314 30.4206 47.2941 30.3973 46.3001 29.6786C46.0994 29.5526 45.9221 29.3939 45.7401 29.2399C43.2341 27.1212 40.7328 24.9979 38.2314 22.8746C37.9654 22.6459 37.6527 22.4219 37.2841 22.4173C36.9154 22.4266 36.6308 22.702 36.4394 22.9913C36.2947 23.22 36.1687 23.4953 36.2247 23.7706C36.276 23.9853 36.3787 24.1906 36.5374 24.3446C36.8547 24.6713 37.2234 24.9419 37.5594 25.2453C39.6034 26.986 41.6427 28.736 43.6914 30.472C43.9714 30.724 44.2934 30.9387 44.5127 31.2513C44.83 31.662 45.0074 32.1753 45.0214 32.6886C45.0167 33.3279 44.7041 33.9253 44.2514 34.3639C43.6121 34.9286 42.7301 35.1992 41.8807 35.1059C41.316 35.0219 40.7374 34.8446 40.294 34.4712C38.25 32.7539 36.2247 31.0039 34.1807 29.2865C33.9054 29.0625 33.5787 28.8152 33.2007 28.8665C32.6734 29.0018 32.2067 29.4778 32.1927 30.0425C32.202 30.4018 32.3934 30.7425 32.6687 30.9712C34.3207 32.3665 35.9587 33.7712 37.6154 35.1572C38.1847 35.6612 38.8007 36.2119 39.0014 36.9772C39.2021 37.6772 38.9454 38.4239 38.5441 39.0025C38.1941 39.5625 37.6014 39.9545 36.9528 40.0805C36.2715 40.1925 35.5435 40.1645 34.9181 39.8518C34.5728 39.7025 34.2694 39.4785 33.9848 39.2358C32.6688 38.1298 31.3621 37.0098 30.0601 35.8898C29.8174 35.7031 29.5654 35.4791 29.2434 35.4558C28.5247 35.3718 27.9274 36.1371 28.0114 36.8185C28.0767 37.0705 28.2261 37.2945 28.4174 37.4718C29.2481 38.1671 30.0694 38.8718 30.8954 39.5765C31.2921 39.9312 31.7307 40.2438 32.0854 40.6452C32.5987 41.2285 32.8881 41.9939 32.8974 42.7685C32.8554 43.2072 32.7807 43.6552 32.5334 44.0285C32.0994 44.7472 31.2827 45.1578 30.4614 45.2372C29.8874 45.3119 29.2947 45.1952 28.7814 44.9385C28.2261 44.6305 27.7594 44.2012 27.2694 43.8092C21.4781 38.8625 15.6914 33.9065 9.90474 28.9505C6.68474 26.2251 3.52544 23.4671 0.314744 20.7651C-0.0119561 20.5411 -0.0912561 20.0604 0.109444 19.7291C3.72614 13.2005 7.33814 6.67183 10.9547 0.143126Z" fill="#215387"/>
<path d="M37.3307 0.23206C37.5127 0.0733598 37.7507 0.00335987 37.984 0.00335987C41.4933 0.00335987 45.0027 0.00335987 48.512 0.00335987C48.7267 0.00805987 49.0253 -0.0526401 49.1327 0.19466C52.8007 6.82136 56.464 13.448 60.1367 20.0747C60.1694 20.1447 60.216 20.2147 60.202 20.2987C60.1227 20.448 59.978 20.546 59.852 20.6534C57.906 22.3101 55.96 23.9714 54.014 25.6281C53.9253 25.7028 53.832 25.7681 53.7387 25.8381C53.5614 25.7308 53.4167 25.5814 53.2534 25.4508C47.1867 20.2941 41.1247 15.1375 35.0581 9.98076C34.9554 9.88746 34.8528 9.79876 34.7268 9.73346C33.0748 11.1242 31.4555 12.5568 29.7755 13.9148C29.2948 14.2975 28.7442 14.5775 28.1748 14.7968C27.7735 14.9321 27.3675 15.0861 26.9381 15.0955C26.9334 15.1048 26.9194 15.1188 26.9148 15.1235C26.2475 15.1655 25.5755 15.0628 24.9455 14.8528C24.0075 14.5028 23.1395 13.9521 22.4255 13.2475C22.3695 13.1962 22.3275 13.1308 22.2808 13.0702C23.6621 11.8662 25.0715 10.6902 26.4621 9.49546C30.0927 6.40136 33.7094 3.31676 37.3307 0.23206Z" fill="#BA0000"/>
</svg>
