<svg width="3840" height="1080" viewBox="0 0 3840 1080">
<path fill-rule="evenodd" clip-rule="evenodd" d="M0.0977047 524.91C238.947 548.347 621.559 550.22 993.107 479.668C1364.68 409.111 1725.06 266.144 1919.6 0L1920 0.297388L1920.4 0C2114.94 266.144 2475.32 409.111 2846.89 479.668C3218.44 550.22 3601.05 548.347 3839.9 524.91L3840 525.91C3765.6 533.21 3677.26 538.419 3579.65 540C3677.26 541.581 3765.6 546.79 3840 554.09L3839.9 555.09C3601.05 531.653 3218.44 529.78 2846.89 600.332C2475.32 670.889 2114.94 813.856 1920.4 1080L1920 1079.7L1919.6 1080C1725.06 813.856 1364.68 670.889 993.107 600.332C621.559 529.78 238.947 531.653 0.0977047 555.09L0 554.09C74.4 546.79 162.742 541.581 260.352 540C162.742 538.419 74.4 533.21 0 525.91L0.0977047 524.91ZM385.289 540C573.26 542.999 785.011 559.794 993.292 599.344C1364.67 669.864 1725.14 812.747 1920 1078.86C2114.86 812.747 2475.33 669.864 2846.71 599.344C3054.99 559.794 3266.74 542.999 3454.71 540C3266.74 537.001 3054.99 520.206 2846.71 480.656C2475.33 410.136 2114.86 267.254 1920 1.14538C1725.14 267.253 1364.67 410.136 993.292 480.656C785.011 520.206 573.26 537.001 385.289 540Z" />
</svg>
