 <svg width="24" height="24" viewBox="0 0 24 24">
<path fill-rule="evenodd" clip-rule="evenodd" d="M9.52672 7.73965C9.36267 7.78821 9.22349 7.89786 9.13789 8.046C9.08015 8.15322 9.07662 8.46193 9.13082 8.5668C9.15085 8.60451 10.0876 9.55656 11.2128 10.6818L13.2583 12.7297L11.2128 14.7764C10.0876 15.9028 9.15085 16.8549 9.13082 16.8926C9.07662 16.9974 9.08015 17.3061 9.13789 17.4134C9.20544 17.5267 9.30286 17.6192 9.4195 17.6808C9.55147 17.748 9.78477 17.7456 9.92027 17.6738C9.99332 17.6349 10.6225 17.0175 12.463 15.1758L14.9079 12.7297L12.463 10.2836C10.6437 8.46311 9.9945 7.82448 9.92381 7.78796C9.79906 7.73323 9.66096 7.71643 9.52672 7.73965Z" />
</svg>
