<svg width="24" height="24" viewBox="0 0 24 24" fill="none" xmlns="http://www.w3.org/2000/svg">
<path fill-rule="evenodd" clip-rule="evenodd" d="M9.52672 7.01015C9.36267 7.05872 9.22349 7.16837 9.13789 7.31651C9.08015 7.42373 9.07662 7.73244 9.13082 7.83731C9.15085 7.87501 10.0876 8.82707 11.2128 9.95233L13.2584 12.0002L11.2128 14.0469C10.0876 15.1733 9.15085 16.1254 9.13082 16.1631C9.07662 16.2679 9.08015 16.5766 9.13789 16.6839C9.20544 16.7972 9.30286 16.8897 9.4195 16.9513C9.55147 17.0185 9.78477 17.0161 9.92027 16.9443C9.99332 16.9054 10.6225 16.288 12.463 14.4463L14.9079 12.0002L12.463 9.55407C10.6437 7.73362 9.9945 7.09499 9.92381 7.05846C9.79906 7.00374 9.66096 6.98694 9.52672 7.01015Z" fill="white"/>
</svg>
