<svg width="20" height="20" viewBox="0 0 20 20">
<path d="M10 7C11.6569 7 13 8.34315 13 10C13 11.6569 11.6569 13 10 13C8.34315 13 7 11.6569 7 10C7 8.34315 8.34315 7 10 7Z" />
<path fill-rule="evenodd" clip-rule="evenodd" d="M10.4004 0C14.9268 1.15503e-09 17.1863 0.000432849 18.5996 1.40039C19.9996 2.82035 20 5.07987 20 9.59961V10.4004C20 14.9268 19.9996 17.1863 18.5996 18.5996C17.1796 19.9996 14.9201 20 10.4004 20H9.59961C5.0732 20 2.81368 19.9996 1.40039 18.5996C0.000433803 17.1796 1.15844e-09 14.9201 0 10.4004V9.59961C1.15856e-09 5.0732 0.00043273 2.81368 1.40039 1.40039C2.82035 0.000433683 5.07987 1.16199e-09 9.59961 0H10.4004ZM10 5C7.23858 5 5 7.23858 5 10C5 12.7614 7.23858 15 10 15C12.7614 15 15 12.7614 15 10C15 7.23858 12.7614 5 10 5ZM15.25 3.5C14.5596 3.5 14 4.05964 14 4.75C14 5.44036 14.5596 6 15.25 6C15.9404 6 16.5 5.44036 16.5 4.75C16.5 4.05964 15.9404 3.5 15.25 3.5Z" />
</svg>