<svg width="16" height="15" viewBox="0 0 16 15" >
<path d="M14.7832 13.7109L12.0059 10.9512C12.4512 10.3887 12.8115 9.74414 13.0869 9.01758C13.3623 8.29102 13.5 7.53516 13.5 6.75C13.5 5.8125 13.3242 4.93359 12.9727 4.11328C12.6211 3.29297 12.1406 2.57812 11.5312 1.96875C10.9219 1.35938 10.207 0.878906 9.38672 0.527344C8.56641 0.175781 7.6875 0 6.75 0C5.8125 0 4.93359 0.175781 4.11328 0.527344C3.29297 0.878906 2.57812 1.35938 1.96875 1.96875C1.35938 2.57812 0.878906 3.29297 0.527344 4.11328C0.175781 4.93359 0 5.8125 0 6.75C0 7.6875 0.175781 8.56641 0.527344 9.38672C0.878906 10.207 1.35938 10.9219 1.96875 11.5312C2.57812 12.1406 3.29297 12.6211 4.11328 12.9727C4.93359 13.3242 5.8125 13.5 6.75 13.5C7.54688 13.5 8.30566 13.3711 9.02637 13.1133C9.74707 12.8555 10.3887 12.4805 10.9512 11.9883L13.7285 14.7656C13.8105 14.8477 13.9014 14.9062 14.001 14.9414C14.1006 14.9766 14.1855 14.9941 14.2559 14.9941C14.3262 14.9941 14.4111 14.9766 14.5107 14.9414C14.6104 14.9062 14.7012 14.8477 14.7832 14.7656C14.9355 14.6133 15.0117 14.4375 15.0117 14.2383C15.0117 14.0391 14.9355 13.8633 14.7832 13.7109ZM1.51172 6.75C1.51172 6.01172 1.64648 5.32617 1.91602 4.69336C2.18555 4.04883 2.55762 3.49219 3.03223 3.02344C3.50684 2.55469 4.06055 2.17969 4.69336 1.89844C5.33789 1.62891 6.02344 1.49414 6.75 1.49414C7.48828 1.49414 8.17383 1.62891 8.80664 1.89844C9.45117 2.17969 10.0078 2.55469 10.4766 3.02344C10.9453 3.49219 11.3203 4.04883 11.6016 4.69336C11.8711 5.32617 12.0059 6.01172 12.0059 6.75C12.0059 7.45312 11.8682 8.12695 11.5928 8.77148C11.3174 9.41602 10.957 9.9668 10.5117 10.4238C10.0195 10.9043 9.45996 11.2734 8.83301 11.5312C8.20605 11.7891 7.54102 11.918 6.83789 11.918C6.08789 11.9414 5.38477 11.8184 4.72852 11.5488C4.08398 11.291 3.52148 10.9277 3.04102 10.459C2.56055 9.99023 2.18555 9.43359 1.91602 8.78906C1.64648 8.15625 1.51172 7.47656 1.51172 6.75Z" />
</svg>