<svg width="18" height="16" viewBox="0 0 18 16" xmlns="http://www.w3.org/2000/svg">
<path d="M1.23741 6.87728C6.06923 4.77213 9.29121 3.38428 10.9033 2.71374C15.5063 0.799222 16.4627 0.46665 17.0861 0.455551C17.2232 0.453253 17.5298 0.487233 17.7284 0.64837C17.8961 0.78443 17.9422 0.968229 17.9643 1.09723C17.9864 1.22623 18.0139 1.5201 17.992 1.74972C17.7426 4.37055 16.6633 10.7306 16.1142 13.666C15.8818 14.9081 15.4244 15.3245 14.9815 15.3653C14.0189 15.4539 13.288 14.7292 12.3558 14.1181C10.897 13.1618 10.0729 12.5666 8.65691 11.6335C7.02048 10.5551 8.08131 9.96237 9.0139 8.99373C9.25797 8.74024 13.4988 4.88284 13.5809 4.53291C13.5912 4.48915 13.6007 4.32601 13.5038 4.23987C13.4069 4.15373 13.2639 4.18319 13.1606 4.20662C13.0143 4.23983 10.6839 5.78015 6.16938 8.82758C5.5079 9.2818 4.90875 9.50312 4.37193 9.49152C3.78013 9.47873 2.64175 9.15691 1.79548 8.88182C0.757494 8.54441 -0.0674757 8.36602 0.00436067 7.793C0.0417775 7.49453 0.452793 7.18929 1.23741 6.87728Z" />
</svg>
