<svg width="18" height="19" viewBox="0 0 18 19"  xmlns="http://www.w3.org/2000/svg">
<path fill-rule="evenodd" clip-rule="evenodd" d="M9.36035 0.914063C13.4341 0.914063 15.4683 0.913864 16.7402 2.17383C18.0002 3.45179 18 5.48595 18 9.55371V10.2744C18 14.3482 18.0002 16.3823 16.7402 17.6543C15.4623 18.9143 13.4281 18.9141 9.36035 18.9141H8.63965C4.56588 18.9141 2.53173 18.9143 1.25977 17.6543C-0.000198126 16.3763 1.06018e-09 14.3422 0 10.2744V9.55371C1.06276e-09 5.47995 -0.000198126 3.44579 1.25977 2.17383C2.53773 0.913864 4.57188 0.914063 8.63965 0.914063H9.36035ZM12.4365 7.21387C12.0904 8.46479 11.0621 9.60013 10.0879 9.70605V7.21875H8.49023V11.5771C7.50129 11.3247 6.25556 10.1035 6.20117 7.21875H4.5C4.57912 11.1529 6.50752 13.5135 9.88965 13.5137H10.0879V11.2646C11.329 11.3907 12.2686 12.3184 12.6445 13.5137H14.4004C14.2204 12.8347 13.9009 12.2023 13.4639 11.6582C13.0266 11.1139 12.4809 10.67 11.8633 10.3564C12.4167 10.0127 12.8949 9.55628 13.2676 9.01562C13.6402 8.47497 13.8995 7.86135 14.0293 7.21387H12.4365Z" />
</svg>
