<svg width="18" height="19" viewBox="0 0 18 19"  xmlns="http://www.w3.org/2000/svg">
<path fill-rule="evenodd" clip-rule="evenodd" d="M15.3 3.50156C13.6125 1.81406 11.3625 0.914062 9 0.914062C4.05 0.914062 0 4.96406 0 9.91406C0 11.4891 0.450007 13.0641 1.23751 14.4141L0 18.9141L4.72501 17.6766C6.07501 18.3516 7.5375 18.8016 9 18.8016C13.95 18.8016 18 14.7516 18 9.80156C18 7.43906 16.9875 5.18906 15.3 3.50156ZM13.05 11.7141C12.825 11.6016 11.7 11.0391 11.475 11.0391C11.25 10.9266 11.1375 10.9266 11.025 11.1516C10.9125 11.3766 10.4625 11.8266 10.35 12.0516C10.2375 12.1641 10.125 12.1641 9.89999 12.1641C9.67499 12.0516 9.00001 11.8266 8.10001 11.0391C7.42501 10.4766 6.97501 9.68906 6.86251 9.46406C6.75001 9.23906 6.86251 9.12656 6.97501 9.01406C7.08751 8.90156 7.2 8.78906 7.3125 8.67656C7.425 8.56406 7.42501 8.45156 7.53751 8.33906C7.65001 8.22656 7.53751 8.11406 7.53751 8.00156C7.53751 7.88906 7.08751 6.76406 6.86251 6.31406C6.75001 5.97656 6.52501 5.97656 6.41251 5.97656C6.30001 5.97656 6.18749 5.97656 5.96249 5.97656C5.84999 5.97656 5.62499 5.97656 5.39999 6.20156C5.17499 6.42656 4.61251 6.98906 4.61251 8.11406C4.61251 9.23906 5.39999 10.2516 5.51249 10.4766C5.62499 10.5891 7.08749 12.9516 9.33749 13.8516C11.25 14.6391 11.5875 14.4141 12.0375 14.4141C12.4875 14.4141 13.3875 13.8516 13.5 13.4016C13.725 12.8391 13.725 12.3891 13.6125 12.3891C13.5 11.8266 13.275 11.8266 13.05 11.7141Z"/>
</svg>
